<?xml version="1.0" encoding="UTF-8"?>
<svg id="Layer_1" data-name="Layer 1" xmlns="http://www.w3.org/2000/svg" xmlns:xlink="http://www.w3.org/1999/xlink" viewBox="0 0 1920 1200">
  <defs>
    <style>
      .cls-1 {
        fill: #9e8361;
      }

      .cls-1, .cls-2, .cls-3, .cls-4, .cls-5, .cls-6, .cls-7, .cls-8, .cls-9, .cls-10, .cls-11, .cls-12, .cls-13, .cls-14, .cls-15, .cls-16, .cls-17, .cls-18, .cls-19, .cls-20, .cls-21 {
        stroke-width: 0px;
      }

      .cls-2 {
        fill: #5b8960;
      }

      .cls-3 {
        fill: #807482;
      }

      .cls-4 {
        fill: #b2a5a3;
      }

      .cls-5 {
        fill: #7a6c70;
      }

      .cls-6 {
        fill: #b09e9e;
      }

      .cls-7 {
        fill: none;
      }

      .cls-8 {
        fill: #665666;
      }

      .cls-9 {
        fill: #698c5f;
      }

      .cls-10 {
        fill: #a0999d;
      }

      .cls-11 {
        fill: #847c84;
      }

      .cls-12 {
        fill: #8c9b67;
      }

      .cls-13 {
        fill: #5b825d;
      }

      .cls-14 {
        fill: #8f8b93;
      }

      .cls-15 {
        fill: #66845d;
      }

      .cls-22 {
        clip-path: url(#clippath);
      }

      .cls-16 {
        fill: #8e828d;
      }

      .cls-17 {
        fill: #937655;
      }

      .cls-18 {
        fill: #433e49;
      }

      .cls-19 {
        fill: #8c6c54;
      }

      .cls-20 {
        fill: #a5989c;
      }

      .cls-21 {
        fill: #938d93;
      }
    </style>
    <clipPath id="clippath">
      <rect class="cls-7" y=".04" width="1920" height="1199.96"/>
    </clipPath>
  </defs>
  <g class="cls-22">
    <g>
      <rect class="cls-18" x="1060.01" y="-51.58" width="384.81" height="133.62"/>
      <g>
        <g>
          <g>
            <path class="cls-16" d="m392.02,53.32l-11.42-71.27c.33-1.75,1.84-8.34,6.62-14.52,4.7-6.07,24.68-36.75,27.55-41.16,1.45-1.1,7.34-5.15,14.91-5.15,1.83,0,3.65.24,5.43.7,9.87,2.59,52.93,4.07,89.34,5.07l4.74.13c2.11.06,4.21.51,6.07,1.31,7.97,3.42,13.19,7.76,13.96,11.62,1.95,9.78,6.69,52.33,7.59,60.48l-56.8,77.8-108-25.02Z"/>
            <path class="cls-5" d="m429.68-82.27v7s0,0,0,0c1.52,0,3.05.2,4.54.59,10.21,2.68,53.53,4.18,90.12,5.18,1.89.05,3.49.1,4.75.13,1.68.05,3.34.4,4.79,1.03,7.63,3.27,11.48,6.92,11.91,9.09,1.83,9.2,6.22,48.18,7.4,58.83l-54.63,74.83-103.46-23.97-10.95-68.31c.46-2.06,1.94-7.42,5.84-12.45,4.62-5.97,23.49-34.9,27.36-40.85,1.72-1.2,6.47-4.1,12.33-4.1v-7m0,0c-10.22,0-17.53,6.26-17.53,6.26,0,0-22.77,35.04-27.69,41.4-6.25,8.08-7.4,16.64-7.4,16.64l11.89,74.16,112.55,26.07L560.45,1.51s-5.59-51.08-7.79-62.13c-1.38-6.94-10.62-11.85-16.02-14.16-2.3-.99-4.81-1.52-7.35-1.59-15.39-.44-81.6-2.01-93.3-5.09-2.2-.58-4.31-.82-6.32-.82h0Z"/>
          </g>
          <polygon class="cls-3" points="502.45 78.9 390.16 53.67 378.92 -16.15 553.52 7.84 502.45 78.9"/>
          <path class="cls-3" d="m510.09,64.81L558.73.96l-10.75-67.04-29.65,40.05c-2.98,3.95-6.83,9.7-11.31,12.38l-7.37,4.9c-3.08,1.84-7.88,3.21-11.59,3.8l-51.27.6,73.29,69.16Z"/>
          <path class="cls-8" d="m429.68-82.27v7s0,0,0,0c1.52,0,3.05.2,4.54.59,10.21,2.68,53.53,4.18,90.12,5.18,1.89.05,3.49.1,4.75.13,1.68.05,3.34.4,4.79,1.03,7.63,3.27,11.48,6.92,11.91,9.09,1.83,9.2,6.22,48.18,7.4,58.83l-54.63,74.83-103.46-23.97-10.95-68.31c.46-2.06,1.94-7.42,5.84-12.45,4.62-5.97,23.49-34.9,27.36-40.85,1.72-1.2,6.47-4.1,12.33-4.1v-7m0,0c-10.22,0-17.53,6.26-17.53,6.26,0,0-22.77,35.04-27.69,41.4-6.25,8.08-7.4,16.64-7.4,16.64l11.89,74.16,112.55,26.07L560.45,1.51s-5.59-51.08-7.79-62.13c-1.38-6.94-10.62-11.85-16.02-14.16-2.3-.99-4.81-1.52-7.35-1.59-15.39-.44-81.6-2.01-93.3-5.09-2.2-.58-4.31-.82-6.32-.82h0Z"/>
        </g>
        <g>
          <g>
            <path class="cls-16" d="m526.62,75.37l-11.42-71.27c.33-1.75,1.84-8.34,6.62-14.52,4.7-6.07,24.68-36.75,27.55-41.16,1.45-1.1,7.34-5.15,14.91-5.15,1.83,0,3.65.24,5.43.7,9.87,2.59,52.93,4.07,89.34,5.07l4.75.13c2.11.06,4.21.51,6.07,1.31,7.97,3.42,13.19,7.76,13.96,11.62,1.95,9.78,6.69,52.33,7.59,60.48l-56.8,77.8-108-25.02Z"/>
            <path class="cls-5" d="m564.29-60.23v7s0,0,0,0c1.52,0,3.05.2,4.54.59,10.21,2.68,53.53,4.18,90.12,5.18,1.89.05,3.49.1,4.75.13,1.68.05,3.34.4,4.79,1.03,7.63,3.27,11.48,6.92,11.91,9.09,1.83,9.2,6.22,48.18,7.4,58.83l-54.63,74.83-103.46-23.97-10.95-68.31c.46-2.06,1.94-7.42,5.84-12.45,4.62-5.97,23.49-34.9,27.36-40.85,1.72-1.2,6.47-4.1,12.33-4.1v-7m0,0c-10.22,0-17.53,6.26-17.53,6.26,0,0-22.77,35.04-27.69,41.4-6.25,8.08-7.4,16.64-7.4,16.64l11.89,74.16,112.55,26.07,58.96-80.76s-5.59-51.08-7.79-62.13c-1.38-6.94-10.62-11.85-16.02-14.16-2.3-.99-4.81-1.52-7.35-1.59-15.39-.44-81.6-2.01-93.3-5.09-2.2-.58-4.31-.82-6.32-.82h0Z"/>
          </g>
          <polygon class="cls-3" points="637.06 100.95 524.77 75.72 513.53 5.9 688.12 29.89 637.06 100.95"/>
          <path class="cls-3" d="m644.69,86.85l48.65-63.85-10.75-67.04-29.65,40.05c-2.98,3.95-6.83,9.7-11.31,12.38l-7.37,4.9c-3.08,1.84-7.88,3.21-11.59,3.8l-51.27.6,73.29,69.16Z"/>
          <path class="cls-8" d="m564.29-60.23v7s0,0,0,0c1.52,0,3.05.2,4.54.59,10.21,2.68,53.53,4.18,90.12,5.18,1.89.05,3.49.1,4.75.13,1.68.05,3.34.4,4.79,1.03,7.63,3.27,11.48,6.92,11.91,9.09,1.83,9.2,6.22,48.18,7.4,58.83l-54.63,74.83-103.46-23.97-10.95-68.31c.46-2.06,1.94-7.42,5.84-12.45,4.62-5.97,23.49-34.9,27.36-40.85,1.72-1.2,6.47-4.1,12.33-4.1v-7m0,0c-10.22,0-17.53,6.26-17.53,6.26,0,0-22.77,35.04-27.69,41.4-6.25,8.08-7.4,16.64-7.4,16.64l11.89,74.16,112.55,26.07,58.96-80.76s-5.59-51.08-7.79-62.13c-1.38-6.94-10.62-11.85-16.02-14.16-2.3-.99-4.81-1.52-7.35-1.59-15.39-.44-81.6-2.01-93.3-5.09-2.2-.58-4.31-.82-6.32-.82h0Z"/>
        </g>
        <g>
          <g>
            <path class="cls-16" d="m646.47,84.7l-11.42-71.27c.33-1.75,1.84-8.34,6.62-14.52,4.7-6.07,24.68-36.75,27.55-41.16,1.45-1.1,7.34-5.15,14.91-5.15,1.83,0,3.65.24,5.43.7,9.87,2.59,52.91,4.07,89.31,5.07l4.77.13c2.11.06,4.21.51,6.07,1.31,7.97,3.42,13.19,7.76,13.96,11.62,1.95,9.78,6.69,52.33,7.59,60.48l-56.8,77.8-108-25.02Z"/>
            <path class="cls-5" d="m684.13-50.89v7s0,0,0,0c1.52,0,3.05.2,4.54.59,10.21,2.68,53.53,4.18,90.12,5.18,1.89.05,3.49.1,4.75.13,1.68.05,3.34.4,4.79,1.03,7.63,3.27,11.48,6.92,11.91,9.09,1.83,9.2,6.22,48.18,7.4,58.83l-54.63,74.83-103.46-23.97-10.95-68.31c.46-2.06,1.94-7.42,5.84-12.45,4.62-5.97,23.49-34.9,27.36-40.85,1.72-1.2,6.47-4.1,12.33-4.1v-7m0,0c-10.22,0-17.53,6.26-17.53,6.26,0,0-22.77,35.04-27.69,41.4-6.25,8.08-7.4,16.64-7.4,16.64l11.89,74.16,112.55,26.07,58.96-80.76s-5.59-51.08-7.79-62.13c-1.38-6.94-10.62-11.85-16.02-14.16-2.3-.99-4.81-1.52-7.35-1.59-15.39-.44-81.6-2.01-93.3-5.09-2.2-.58-4.31-.82-6.32-.82h0Z"/>
          </g>
          <polygon class="cls-3" points="756.91 110.28 644.61 85.05 633.37 15.23 807.97 39.22 756.91 110.28"/>
          <path class="cls-3" d="m764.54,96.19l48.65-63.85-10.75-67.04-29.65,40.05c-2.98,3.95-6.83,9.7-11.31,12.38l-7.37,4.9c-3.08,1.84-7.88,3.21-11.59,3.8l-51.27.6,73.29,69.16Z"/>
          <path class="cls-8" d="m684.13-50.89v7s0,0,0,0c1.52,0,3.05.2,4.54.59,10.21,2.68,53.53,4.18,90.12,5.18,1.89.05,3.49.1,4.75.13,1.68.05,3.34.4,4.79,1.03,7.63,3.27,11.48,6.92,11.91,9.09,1.83,9.2,6.22,48.18,7.4,58.83l-54.63,74.83-103.46-23.97-10.95-68.31c.46-2.06,1.94-7.42,5.84-12.45,4.62-5.97,23.49-34.9,27.36-40.85,1.72-1.2,6.47-4.1,12.33-4.1v-7m0,0c-10.22,0-17.53,6.26-17.53,6.26,0,0-22.77,35.04-27.69,41.4-6.25,8.08-7.4,16.64-7.4,16.64l11.89,74.16,112.55,26.07,58.96-80.76s-5.59-51.08-7.79-62.13c-1.38-6.94-10.62-11.85-16.02-14.16-2.3-.99-4.81-1.52-7.35-1.59-15.39-.44-81.6-2.01-93.3-5.09-2.2-.58-4.31-.82-6.32-.82h0Z"/>
        </g>
        <g>
          <g>
            <path class="cls-16" d="m766.46,96.65l-11.42-71.27c.33-1.75,1.84-8.34,6.62-14.52,4.7-6.07,24.68-36.75,27.55-41.16,1.45-1.1,7.34-5.15,14.91-5.15,1.83,0,3.65.24,5.43.7,9.87,2.59,52.91,4.07,89.31,5.07l4.77.13c2.11.06,4.21.51,6.07,1.31,7.97,3.42,13.19,7.76,13.96,11.62,1.95,9.78,6.69,52.33,7.59,60.48l-56.8,77.8-108-25.02Z"/>
            <path class="cls-5" d="m804.13-38.94v7s0,0,0,0c1.52,0,3.05.2,4.54.59,10.21,2.68,53.53,4.18,90.12,5.18,1.89.05,3.49.1,4.75.13,1.68.05,3.34.4,4.79,1.03,7.63,3.27,11.48,6.92,11.91,9.09,1.83,9.2,6.22,48.18,7.4,58.83l-54.63,74.83-103.46-23.97-10.95-68.31c.46-2.06,1.94-7.42,5.84-12.45,4.62-5.97,23.49-34.9,27.36-40.85,1.72-1.2,6.47-4.1,12.33-4.1v-7m0,0c-10.22,0-17.53,6.26-17.53,6.26,0,0-22.77,35.04-27.69,41.4-6.25,8.08-7.4,16.64-7.4,16.64l11.89,74.16,112.55,26.07,58.96-80.76s-5.59-51.08-7.79-62.13c-1.38-6.94-10.62-11.85-16.02-14.16-2.3-.99-4.81-1.52-7.35-1.59-15.39-.44-81.6-2.01-93.3-5.09-2.2-.58-4.31-.82-6.32-.82h0Z"/>
          </g>
          <polygon class="cls-3" points="876.9 122.24 764.61 97 753.37 27.19 927.96 51.18 876.9 122.24"/>
          <path class="cls-3" d="m884.53,108.14l48.65-63.85-10.75-67.04-29.65,40.05c-2.98,3.95-6.83,9.7-11.31,12.38l-7.37,4.9c-3.08,1.84-7.88,3.21-11.59,3.8l-51.27.6,73.29,69.16Z"/>
          <path class="cls-8" d="m804.13-38.94v7s0,0,0,0c1.52,0,3.05.2,4.54.59,10.21,2.68,53.53,4.18,90.12,5.18,1.89.05,3.49.1,4.75.13,1.68.05,3.34.4,4.79,1.03,7.63,3.27,11.48,6.92,11.91,9.09,1.83,9.2,6.22,48.18,7.4,58.83l-54.63,74.83-103.46-23.97-10.95-68.31c.46-2.06,1.94-7.42,5.84-12.45,4.62-5.97,23.49-34.9,27.36-40.85,1.72-1.2,6.47-4.1,12.33-4.1v-7m0,0c-10.22,0-17.53,6.26-17.53,6.26,0,0-22.77,35.04-27.69,41.4-6.25,8.08-7.4,16.64-7.4,16.64l11.89,74.16,112.55,26.07,58.96-80.76s-5.59-51.08-7.79-62.13c-1.38-6.94-10.62-11.85-16.02-14.16-2.3-.99-4.81-1.52-7.35-1.59-15.39-.44-81.6-2.01-93.3-5.09-2.2-.58-4.31-.82-6.32-.82h0Z"/>
        </g>
        <g>
          <g>
            <path class="cls-16" d="m899.49,119.45l-11.42-71.27c.33-1.75,1.84-8.34,6.62-14.52,4.7-6.07,24.68-36.75,27.55-41.16,1.45-1.1,7.34-5.15,14.91-5.15,1.83,0,3.65.24,5.43.7,9.87,2.59,52.93,4.07,89.34,5.07l4.75.13c2.11.06,4.21.51,6.07,1.31,7.97,3.42,13.19,7.76,13.96,11.62,1.95,9.78,6.69,52.33,7.59,60.48l-56.8,77.8-108-25.02Z"/>
            <path class="cls-5" d="m937.15-16.15v7s0,0,0,0c1.52,0,3.05.2,4.54.59,10.21,2.68,53.53,4.18,90.12,5.18,1.89.05,3.49.1,4.75.13,1.68.05,3.34.4,4.79,1.03,7.63,3.27,11.48,6.92,11.91,9.09,1.83,9.2,6.22,48.18,7.4,58.83l-54.63,74.83-103.46-23.97-10.95-68.31c.46-2.06,1.94-7.42,5.84-12.45,4.62-5.97,23.49-34.9,27.36-40.85,1.72-1.2,6.47-4.1,12.33-4.1v-7m0,0c-10.22,0-17.53,6.26-17.53,6.26,0,0-22.77,35.04-27.69,41.4-6.25,8.08-7.4,16.64-7.4,16.64l11.89,74.16,112.55,26.07,58.96-80.76s-5.59-51.08-7.79-62.13c-1.38-6.94-10.62-11.85-16.02-14.16-2.3-.99-4.81-1.52-7.35-1.59-15.39-.44-81.6-2.01-93.3-5.09-2.2-.58-4.31-.82-6.32-.82h0Z"/>
          </g>
          <polygon class="cls-3" points="1009.92 145.03 897.63 119.8 886.39 49.98 1060.98 73.97 1009.92 145.03"/>
          <path class="cls-3" d="m1017.55,130.93l48.65-63.85L1055.45.04l-29.65,40.05c-2.98,3.95-6.83,9.7-11.31,12.38l-7.37,4.9c-3.08,1.84-7.88,3.21-11.59,3.8l-51.27.6,73.29,69.16Z"/>
          <path class="cls-8" d="m937.15-16.15v7s0,0,0,0c1.52,0,3.05.2,4.54.59,10.21,2.68,53.53,4.18,90.12,5.18,1.89.05,3.49.1,4.75.13,1.68.05,3.34.4,4.79,1.03,7.63,3.27,11.48,6.92,11.91,9.09,1.83,9.2,6.22,48.18,7.4,58.83l-54.63,74.83-103.46-23.97-10.95-68.31c.46-2.06,1.94-7.42,5.84-12.45,4.62-5.97,23.49-34.9,27.36-40.85,1.72-1.2,6.47-4.1,12.33-4.1v-7m0,0c-10.22,0-17.53,6.26-17.53,6.26,0,0-22.77,35.04-27.69,41.4-6.25,8.08-7.4,16.64-7.4,16.64l11.89,74.16,112.55,26.07,58.96-80.76s-5.59-51.08-7.79-62.13c-1.38-6.94-10.62-11.85-16.02-14.16-2.3-.99-4.81-1.52-7.35-1.59-15.39-.44-81.6-2.01-93.3-5.09-2.2-.58-4.31-.82-6.32-.82h0Z"/>
        </g>
        <g>
          <g>
            <path class="cls-16" d="m1020.2,116.08l-11.42-71.27c.33-1.75,1.84-8.34,6.62-14.52,4.7-6.07,24.68-36.75,27.55-41.16,1.45-1.1,7.33-5.15,14.91-5.15,1.83,0,3.65.24,5.43.7,9.87,2.59,52.93,4.07,89.34,5.07l4.75.13c2.11.06,4.21.51,6.07,1.31,7.97,3.42,13.19,7.76,13.96,11.62,1.95,9.78,6.69,52.33,7.59,60.48l-56.8,77.8-108-25.02Z"/>
            <path class="cls-5" d="m1057.87-19.52v7s0,0,0,0c1.52,0,3.05.2,4.54.59,10.21,2.68,53.53,4.18,90.12,5.18,1.89.05,3.49.1,4.75.13,1.68.05,3.34.4,4.79,1.03,7.63,3.27,11.48,6.92,11.91,9.09,1.83,9.2,6.22,48.18,7.4,58.83l-54.63,74.83-103.46-23.97-10.95-68.31c.46-2.06,1.94-7.42,5.84-12.45,4.62-5.97,23.49-34.9,27.36-40.85,1.72-1.2,6.47-4.1,12.33-4.1v-7m0,0c-10.22,0-17.53,6.26-17.53,6.26,0,0-22.77,35.04-27.69,41.4-6.25,8.08-7.4,16.64-7.4,16.64l11.89,74.16,112.55,26.07,58.96-80.76s-5.59-51.08-7.79-62.13c-1.38-6.94-10.62-11.85-16.02-14.16-2.3-.99-4.81-1.52-7.35-1.59-15.39-.44-81.6-2.01-93.3-5.09-2.2-.58-4.31-.82-6.32-.82h0Z"/>
          </g>
          <polygon class="cls-3" points="1130.64 141.66 1018.35 116.43 1007.11 46.61 1181.7 70.6 1130.64 141.66"/>
          <path class="cls-3" d="m1138.27,127.56l48.65-63.85-10.75-67.04-29.65,40.05c-2.98,3.95-6.83,9.7-11.31,12.38l-7.37,4.9c-3.08,1.84-7.88,3.21-11.59,3.8l-51.27.6,73.29,69.16Z"/>
          <path class="cls-8" d="m1057.87-19.52v7s0,0,0,0c1.52,0,3.05.2,4.54.59,10.21,2.68,53.53,4.18,90.12,5.18,1.89.05,3.49.1,4.75.13,1.68.05,3.34.4,4.79,1.03,7.63,3.27,11.48,6.92,11.91,9.09,1.83,9.2,6.22,48.18,7.4,58.83l-54.63,74.83-103.46-23.97-10.95-68.31c.46-2.06,1.94-7.42,5.84-12.45,4.62-5.97,23.49-34.9,27.36-40.85,1.72-1.2,6.47-4.1,12.33-4.1v-7m0,0c-10.22,0-17.53,6.26-17.53,6.26,0,0-22.77,35.04-27.69,41.4-6.25,8.08-7.4,16.64-7.4,16.64l11.89,74.16,112.55,26.07,58.96-80.76s-5.59-51.08-7.79-62.13c-1.38-6.94-10.62-11.85-16.02-14.16-2.3-.99-4.81-1.52-7.35-1.59-15.39-.44-81.6-2.01-93.3-5.09-2.2-.58-4.31-.82-6.32-.82h0Z"/>
        </g>
        <g>
          <g>
            <path class="cls-16" d="m1149.79,140.17l-11.43-71.27c.33-1.75,1.84-8.34,6.63-14.52,4.7-6.07,24.68-36.75,27.55-41.16,1.45-1.1,7.34-5.15,14.91-5.15,1.83,0,3.65.24,5.43.7,9.87,2.59,52.93,4.07,89.34,5.07l4.75.13c2.11.06,4.21.51,6.07,1.31,7.97,3.42,13.19,7.76,13.96,11.62,1.95,9.78,6.69,52.33,7.59,60.48l-56.8,77.8-108-25.02Z"/>
            <path class="cls-5" d="m1187.46,4.58v7s0,0,0,0c1.52,0,3.05.2,4.54.59,10.21,2.68,53.53,4.18,90.12,5.18,1.89.05,3.49.1,4.75.13,1.68.05,3.34.4,4.79,1.03,7.63,3.27,11.48,6.92,11.91,9.09,1.83,9.2,6.22,48.18,7.4,58.83l-54.63,74.83-103.46-23.97-10.95-68.33c.44-2.03,1.91-7.36,5.84-12.44,4.62-5.97,23.49-34.9,27.36-40.85,1.72-1.2,6.47-4.1,12.33-4.1v-7m0,0c-10.22,0-17.53,6.26-17.53,6.26,0,0-22.77,35.04-27.69,41.4-6.26,8.08-7.4,16.64-7.4,16.64l11.89,74.16,112.55,26.07,58.96-80.76s-5.59-51.08-7.79-62.13c-1.38-6.94-10.62-11.85-16.02-14.16-2.3-.99-4.81-1.52-7.35-1.59-15.39-.44-81.6-2.01-93.3-5.09-2.2-.58-4.31-.82-6.32-.82h0Z"/>
          </g>
          <polygon class="cls-3" points="1260.23 165.76 1147.94 140.52 1136.7 70.71 1311.29 94.7 1260.23 165.76"/>
          <path class="cls-3" d="m1267.86,151.66l48.65-63.85-10.75-67.04-29.65,40.05c-2.98,3.95-6.83,9.7-11.31,12.38l-7.37,4.9c-3.08,1.84-7.88,3.21-11.59,3.8l-51.27.6,73.29,69.16Z"/>
          <path class="cls-8" d="m1187.46,4.58v7s0,0,0,0c1.52,0,3.05.2,4.54.59,10.21,2.68,53.53,4.18,90.12,5.18,1.89.05,3.49.1,4.75.13,1.68.05,3.34.4,4.79,1.03,7.63,3.27,11.48,6.92,11.91,9.09,1.83,9.2,6.22,48.18,7.4,58.83l-54.63,74.83-103.46-23.97-10.95-68.33c.44-2.03,1.91-7.36,5.84-12.44,4.62-5.97,23.49-34.9,27.36-40.85,1.72-1.2,6.47-4.1,12.33-4.1v-7m0,0c-10.22,0-17.53,6.26-17.53,6.26,0,0-22.77,35.04-27.69,41.4-6.26,8.08-7.4,16.64-7.4,16.64l11.89,74.16,112.55,26.07,58.96-80.76s-5.59-51.08-7.79-62.13c-1.38-6.94-10.62-11.85-16.02-14.16-2.3-.99-4.81-1.52-7.35-1.59-15.39-.44-81.6-2.01-93.3-5.09-2.2-.58-4.31-.82-6.32-.82h0Z"/>
        </g>
        <g>
          <g>
            <path class="cls-16" d="m1287.65,157.64l-11.43-71.27c.33-1.75,1.84-8.34,6.63-14.52,4.7-6.07,24.68-36.75,27.55-41.16,1.45-1.1,7.34-5.15,14.91-5.15,1.83,0,3.65.24,5.43.7,9.87,2.59,52.93,4.07,89.34,5.07l4.75.13c2.11.06,4.21.51,6.07,1.31,7.97,3.42,13.19,7.76,13.96,11.62,1.95,9.78,6.69,52.33,7.59,60.48l-56.8,77.8-108-25.02Z"/>
            <path class="cls-5" d="m1325.31,22.05v7s0,0,0,0c1.52,0,3.05.2,4.54.59,10.21,2.68,53.53,4.18,90.12,5.18,1.89.05,3.49.1,4.75.13,1.68.05,3.34.4,4.79,1.03,7.63,3.27,11.48,6.92,11.91,9.09,1.83,9.2,6.22,48.18,7.4,58.83l-54.63,74.83-103.46-23.97-10.95-68.33c.44-2.03,1.91-7.36,5.84-12.44,4.62-5.97,23.49-34.9,27.36-40.85,1.72-1.2,6.47-4.1,12.33-4.1v-7m0,0c-10.22,0-17.53,6.26-17.53,6.26,0,0-22.77,35.04-27.69,41.4-6.26,8.08-7.4,16.64-7.4,16.64l11.89,74.16,112.55,26.07,58.96-80.76s-5.59-51.08-7.79-62.13c-1.38-6.94-10.62-11.85-16.02-14.16-2.3-.99-4.81-1.52-7.35-1.59-15.39-.44-81.6-2.01-93.3-5.09-2.2-.58-4.31-.82-6.32-.82h0Z"/>
          </g>
          <polygon class="cls-3" points="1398.09 183.22 1285.79 157.99 1274.55 88.17 1449.15 112.16 1398.09 183.22"/>
          <path class="cls-3" d="m1405.72,169.13l48.65-63.85-10.75-67.04-29.65,40.05c-2.98,3.95-6.83,9.7-11.31,12.38l-7.37,4.9c-3.08,1.84-7.88,3.21-11.59,3.8l-51.27.6,73.29,69.16Z"/>
          <path class="cls-8" d="m1325.31,22.05v7s0,0,0,0c1.52,0,3.05.2,4.54.59,10.21,2.68,53.53,4.18,90.12,5.18,1.89.05,3.49.1,4.75.13,1.68.05,3.34.4,4.79,1.03,7.63,3.27,11.48,6.92,11.91,9.09,1.83,9.2,6.22,48.18,7.4,58.83l-54.63,74.83-103.46-23.97-10.95-68.33c.44-2.03,1.91-7.36,5.84-12.44,4.62-5.97,23.49-34.9,27.36-40.85,1.72-1.2,6.47-4.1,12.33-4.1v-7m0,0c-10.22,0-17.53,6.26-17.53,6.26,0,0-22.77,35.04-27.69,41.4-6.26,8.08-7.4,16.64-7.4,16.64l11.89,74.16,112.55,26.07,58.96-80.76s-5.59-51.08-7.79-62.13c-1.38-6.94-10.62-11.85-16.02-14.16-2.3-.99-4.81-1.52-7.35-1.59-15.39-.44-81.6-2.01-93.3-5.09-2.2-.58-4.31-.82-6.32-.82h0Z"/>
        </g>
      </g>
      <polygon class="cls-12" points="-165.8 1055.08 -68.28 1087.19 527.97 360.13 -107.41 270.78 -165.8 1055.08"/>
      <polygon class="cls-4" points="1235.76 100.96 1004.5 423.2 985.87 420.73 402.86 1216.94 -180.06 1220.28 527.97 360.13 262.2 324.96 286.87 -.79 778.9 43.43 1235.76 100.96"/>
      <g>
        <path class="cls-12" d="m677.1,695.68l-17.51-15.09-20.87-17.99,18.99,29.33-25.66-10.99s-12.49-8.35-22.61-16.52c-10.12-8.18,28.39,27.06,28.39,27.06l-26.14-.71-54.87-35.24,45.82,36.96-59.8-7.56s-33.56-30.48-32.5-49.16c0,0-6.59,14.85,21.19,48.27,0,0-16.18-19.68-27.95-20.14,0,0,27.52,15.79,19.17,22.18l-36.64-7.08-30.88-26.1,23.06,26.68-21.74-16.16,11.8,13.66-52.17-6.53s-17.42-32.91-41.33-33.61c0,0,30.28,10.22,34.53,33.01,0,0-19.15-17.46-29.14-17.14,0,0,27.62,13.02,21.44,20.31l-36.58-4.45-16.2-18.74,8.82,17.9-21.28-1.79-25.91-22.55,19.28,22.31-22.41-13.19,16.69,13.55-34.3-4.75s-19.17-8.65-29.37-22.31c0,0,9.11,14.6,19.42,22.65l-22.25-14.24,14.24,13.83-16.6-1.7-16.58-15.47,17.08,26.51,439.3,45.78-17.95-20.77Z"/>
        <path class="cls-12" d="m760.04,701.73l-17.72-14.84-21.12-17.69,19.4,29.06-25.81-10.63s-12.6-8.17-22.84-16.2,28.77,26.66,28.77,26.66l-26.14-.34-55.36-34.46,46.34,36.31-59.9-6.71s-33.99-30.01-33.19-48.69c0,0-6.38,14.94,21.87,47.96,0,0-16.46-19.45-28.23-19.74,0,0,27.74,15.4,19.48,21.91l-36.73-6.56-31.25-25.66,23.43,26.35-21.97-15.86,11.99,13.49-52.26-5.79s-17.89-32.66-41.8-33.02c0,0,30.42,9.8,35,32.52,0,0-19.39-17.18-29.38-16.73,0,0,27.8,12.63,21.72,20l-36.64-3.93-16.46-18.51,9.07,17.78-21.3-1.49-26.22-22.18,19.6,22.03-22.59-12.87,16.88,13.31-34.36-4.26s-19.29-8.38-29.68-21.89c0,0,9.31,14.47,19.74,22.37l-22.45-13.93,14.44,13.62-16.62-1.47-16.8-15.24,17.45,26.27,439.91,39.58-18.24-20.52Z"/>
      </g>
      <polygon class="cls-20" points="527.97 360.13 364.64 338.97 365.26 317.72 540.52 343.11 527.97 360.13"/>
      <polygon class="cls-1" points="377.05 405.36 -96.75 895.28 -82.29 -70.89 389.31 -76.14 377.05 405.36"/>
      <polygon class="cls-19" points="275.11 508.04 174.66 614.64 182.25 -40.48 301.39 -40.48 275.11 508.04"/>
      <polygon class="cls-17" points="297.3 488.19 174.66 614.64 204.44 -149.45 323.58 -149.45 297.3 488.19"/>
      <polygon class="cls-17" points="40.34 753.32 -82.29 879.77 -82.29 -56.44 40.34 -56.44 40.34 753.32"/>
      <polygon class="cls-6" points="540.52 343.11 985.91 399.1 1235.76 94.01 777.81 43.33 540.52 343.11"/>
      <polygon class="cls-10" points="-15.98 1021.89 493.77 1077.89 770.07 700.55 279.22 663.46 -15.98 1021.89"/>
      <g>
        <g>
          <g>
            <path class="cls-10" d="m1225.12,211.37c-.63-2.64-3.58-16.75.56-32.51,3.72-14.13,16.04-84.54,17.38-92.2,1.69-2.97,12.8-20.97,34.8-22.91,21.44-1.9,122.32-35.74,160.3-48.48,3.36-1.13,6.22-2.09,8.47-2.84,3.52-1.17,7.16-1.77,10.83-1.77.66,0,1.33.02,1.99.06,8.51.51,29.08,2.86,36.17,13.58,11.25,17,54.1,94.93,59.88,105.46l-41.8,179.9-213.04,25.25-75.54-123.54Z"/>
            <path class="cls-5" d="m1457.45,14.16h0c.59,0,1.19.02,1.78.05,16.88,1.02,29.08,5.4,33.46,12.02,10.82,16.37,51.33,89.92,59.09,104.04l-40.94,176.21-208.37,24.69-74.08-121.15c-.75-3.35-3.08-16,.67-30.27,3.67-13.95,15.57-81.77,17.34-91.9,2.22-3.79,12.26-18.9,31.76-20.62,19.37-1.71,96.27-26.9,161.1-48.65,3.36-1.13,6.22-2.09,8.47-2.84,3.16-1.05,6.43-1.59,9.72-1.59m0-7c-4.06,0-8.1.67-11.93,1.95-27.41,9.15-145.06,49.13-167.97,51.16-26.2,2.32-37.84,25.23-37.84,25.23,0,0-13.56,77.83-17.42,92.48-4.89,18.6-.44,34.77-.44,34.77l76.99,125.91,217.7-25.8,42.66-183.6s-48.45-88.39-60.67-106.88c-7.68-11.61-27.64-14.47-38.88-15.15-.73-.04-1.47-.07-2.2-.07h0Z"/>
          </g>
          <polygon class="cls-14" points="1515.7 306.15 1299.08 333.3 1226.52 214.8 1551.79 145.14 1515.7 306.15"/>
          <path class="cls-14" d="m1518.47,275.82l37.3-146.46-69.6-113.82-21.89,91.31c-2.25,9.04-4.67,21.89-10.53,29.61l-9.26,13.6c-4.02,5.3-11.44,10.87-17.51,14.33l-89.73,34.23,181.22,77.2Z"/>
          <path class="cls-5" d="m1457.45,14.16h0c.59,0,1.19.02,1.78.05,16.88,1.02,29.08,5.4,33.46,12.02,10.82,16.37,51.33,89.92,59.09,104.04l-40.94,176.21-208.37,24.69-74.08-121.15c-.75-3.35-3.08-16,.67-30.27,3.67-13.95,15.57-81.77,17.34-91.9,2.22-3.79,12.26-18.9,31.76-20.62,19.37-1.71,96.27-26.9,161.1-48.65,3.36-1.13,6.22-2.09,8.47-2.84,3.16-1.05,6.43-1.59,9.72-1.59m0-7c-4.06,0-8.1.67-11.93,1.95-27.41,9.15-145.06,49.13-167.97,51.16-26.2,2.32-37.84,25.23-37.84,25.23,0,0-13.56,77.83-17.42,92.48-4.89,18.6-.44,34.77-.44,34.77l76.99,125.91,217.7-25.8,42.66-183.6s-48.45-88.39-60.67-106.88c-7.68-11.61-27.64-14.47-38.88-15.15-.73-.04-1.47-.07-2.2-.07h0Z"/>
        </g>
        <g>
          <g>
            <path class="cls-10" d="m1445.57,262.31l-19.06-139.64c.39-2.58,2.86-16.92,11.86-30.51,7.99-12.07,42.79-74.37,46.42-80.88,1.97-1.84,13.11-11.56,27.54-11.56,2.9,0,5.81.4,8.64,1.18,18.39,5.08,113.22,5.48,148.92,5.63,3.16.01,5.84.02,7.95.04,3.81.02,7.45.83,10.82,2.4,8.38,3.92,22.73,12.24,24.73,23.99,3.34,19.59,11.48,106.84,12.52,118.02l-97.09,155.32-183.25-43.99Z"/>
            <path class="cls-5" d="m1512.34,3.22c2.59,0,5.18.35,7.7,1.05,16.7,4.61,88.85,5.5,149.83,5.76,3.16.01,5.84.02,7.95.04,3.3.02,6.45.72,9.35,2.08,6.24,2.92,20.96,10.85,22.76,21.4,3.22,18.9,10.98,101.53,12.37,116.58l-95.13,152.18-178.47-42.84-18.66-136.76c.54-3.31,3.09-16.3,11.24-28.61,7.89-11.92,41.44-71.92,46.28-80.61,2.51-2.24,12.37-10.26,24.76-10.26h0m0-7c-17.6,0-30.34,12.9-30.34,12.9,0,0-38.27,68.61-46.54,81.11-10.5,15.87-12.48,32.44-12.48,32.44l19.45,142.49,188.02,45.13,99.05-158.45s-9.05-98.25-12.66-119.46c-2.27-13.32-17.69-22.36-26.69-26.57-3.84-1.8-8.04-2.71-12.28-2.73-25.73-.15-136.41-.15-155.96-5.54-3.31-.91-6.51-1.3-9.57-1.3h0Z"/>
          </g>
          <polygon class="cls-14" points="1632.08 303.74 1444.49 260.22 1426.1 126.09 1717.87 164.36 1632.08 303.74"/>
          <path class="cls-14" d="m1644.93,276.21l81.7-125.36-17.58-128.8-49.81,78.59c-5,7.76-11.47,19.02-18.98,24.39l-12.35,9.8c-5.16,3.69-13.19,6.54-19.4,7.85l-85.72,3.5,122.13,130.03Z"/>
          <path class="cls-5" d="m1512.34,3.22c2.59,0,5.18.35,7.7,1.05,16.7,4.61,88.85,5.5,149.83,5.76,3.16.01,5.84.02,7.95.04,3.3.02,6.45.72,9.35,2.08,6.24,2.92,20.96,10.85,22.76,21.4,3.22,18.9,10.98,101.53,12.37,116.58l-95.13,152.18-178.47-42.84-18.66-136.76c.54-3.31,3.09-16.3,11.24-28.61,7.89-11.92,41.44-71.92,46.28-80.61,2.51-2.24,12.37-10.26,24.76-10.26h0m0-7c-17.6,0-30.34,12.9-30.34,12.9,0,0-38.27,68.61-46.54,81.11-10.5,15.87-12.48,32.44-12.48,32.44l19.45,142.49,188.02,45.13,99.05-158.45s-9.05-98.25-12.66-119.46c-2.27-13.32-17.69-22.36-26.69-26.57-3.84-1.8-8.04-2.71-12.28-2.73-25.73-.15-136.41-.15-155.96-5.54-3.31-.91-6.51-1.3-9.57-1.3h0Z"/>
        </g>
        <g>
          <g>
            <path class="cls-10" d="m1144.88,339.44v-140.93c.73-2.51,5.13-16.37,15.88-28.63,9.55-10.88,52.46-67.9,56.94-73.86,1.97-1.39,12.04-8.03,24.34-8.03,4.49,0,8.83.89,12.91,2.64,17.54,7.52,111.43,20.74,146.78,25.72,3.13.44,5.79.82,7.88,1.11,3.77.54,7.27,1.83,10.39,3.85,7.77,5.01,20.86,15.2,21.26,27.11.66,19.87-3.07,107.41-3.56,118.63l-117.2,140.76-175.62-68.36Z"/>
            <path class="cls-5" d="m1242.03,91.49h0c4.01,0,7.89.79,11.53,2.35,15.93,6.83,87.29,17.46,147.68,25.97,3.12.44,5.78.81,7.87,1.11,3.27.47,6.29,1.58,8.99,3.32,5.79,3.74,19.3,13.58,19.66,24.28.63,19.16-2.86,102.08-3.5,117.18l-114.83,137.92-171.04-66.58v-138.04c.97-3.19,5.18-15.62,15.01-26.82,9.43-10.74,50.78-65.66,56.76-73.61,2.48-1.67,11.33-7.09,21.88-7.09m0-7c-15.11,0-26.82,9.01-26.82,9.01,0,0-47.19,62.8-57.08,74.07-12.55,14.3-16.75,30.45-16.75,30.45v143.81l180.19,70.15,119.57-143.6s4.32-98.57,3.61-120.07c-.45-13.5-14.51-24.55-22.86-29.94-3.56-2.3-7.6-3.77-11.8-4.37-25.48-3.63-135.14-18.59-153.78-26.58-4.92-2.11-9.76-2.92-14.29-2.92h0Z"/>
          </g>
          <polygon class="cls-14" points="1324.08 405.71 1144.09 337.22 1144.01 201.84 1427.92 279.21 1324.08 405.71"/>
          <path class="cls-14" d="m1340.53,380.17l97.9-113.16v-130l-59.98,71.13c-6,7.01-13.94,17.3-22.1,21.6l-13.56,8.04c-5.61,2.95-13.96,4.7-20.28,5.16l-85.41-8.12,103.42,145.36Z"/>
          <path class="cls-5" d="m1242.03,91.49h0c4.01,0,7.89.79,11.53,2.35,15.93,6.83,87.29,17.46,147.68,25.97,3.12.44,5.78.81,7.87,1.11,3.27.47,6.29,1.58,8.99,3.32,5.79,3.74,19.3,13.58,19.66,24.28.63,19.16-2.86,102.08-3.5,117.18l-114.83,137.92-171.04-66.58v-138.04c.97-3.19,5.18-15.62,15.01-26.82,9.43-10.74,50.78-65.66,56.76-73.61,2.48-1.67,11.33-7.09,21.88-7.09m0-7c-15.11,0-26.82,9.01-26.82,9.01,0,0-47.19,62.8-57.08,74.07-12.55,14.3-16.75,30.45-16.75,30.45v143.81l180.19,70.15,119.57-143.6s4.32-98.57,3.61-120.07c-.45-13.5-14.51-24.55-22.86-29.94-3.56-2.3-7.6-3.77-11.8-4.37-25.48-3.63-135.14-18.59-153.78-26.58-4.92-2.11-9.76-2.92-14.29-2.92h0Z"/>
        </g>
        <g>
          <g>
            <path class="cls-10" d="m1046.87,467.16v-140.93c.73-2.51,5.13-16.37,15.88-28.62,9.55-10.88,52.45-67.9,56.93-73.86,1.97-1.39,12.04-8.03,24.34-8.03,4.49,0,8.83.89,12.91,2.64,17.54,7.52,111.44,20.74,146.79,25.72,3.13.44,5.78.81,7.87,1.11,3.78.54,7.27,1.83,10.39,3.85,7.77,5.01,20.86,15.2,21.26,27.11.66,19.87-3.07,107.41-3.56,118.63l-117.2,140.76-175.61-68.36Z"/>
            <path class="cls-5" d="m1144.03,219.21h0c4.01,0,7.89.79,11.53,2.35,15.93,6.83,87.29,17.46,147.68,25.97,3.12.44,5.78.81,7.87,1.11,3.27.47,6.29,1.58,8.99,3.32,5.79,3.74,19.3,13.58,19.66,24.28.63,19.16-2.86,102.08-3.5,117.18l-114.83,137.92-171.04-66.58v-138.02c.99-3.21,5.27-15.73,15.01-26.83,9.43-10.74,50.78-65.66,56.76-73.61,2.48-1.67,11.33-7.09,21.88-7.09m0-7c-15.11,0-26.82,9.01-26.82,9.01,0,0-47.19,62.8-57.08,74.07-12.55,14.3-16.75,30.45-16.75,30.45v143.81l180.19,70.15,119.57-143.6s4.32-98.57,3.61-120.07c-.45-13.5-14.5-24.55-22.86-29.94-3.56-2.3-7.6-3.77-11.8-4.37-25.48-3.63-135.14-18.59-153.78-26.58-4.92-2.11-9.76-2.92-14.29-2.92h0Z"/>
          </g>
          <polygon class="cls-14" points="1226.07 533.44 1046.08 464.95 1046.01 329.56 1329.92 406.94 1226.07 533.44"/>
          <path class="cls-14" d="m1242.52,507.89l97.9-113.16v-130l-59.98,71.13c-6,7.01-13.94,17.3-22.1,21.6l-13.56,8.04c-5.61,2.95-13.96,4.7-20.28,5.16l-85.41-8.12,103.42,145.36Z"/>
          <path class="cls-5" d="m1144.03,219.21h0c4.01,0,7.89.79,11.53,2.35,15.93,6.83,87.29,17.46,147.68,25.97,3.12.44,5.78.81,7.87,1.11,3.27.47,6.29,1.58,8.99,3.32,5.79,3.74,19.3,13.58,19.66,24.28.63,19.16-2.86,102.08-3.5,117.18l-114.83,137.92-171.04-66.58v-138.02c.99-3.21,5.27-15.73,15.01-26.83,9.43-10.74,50.78-65.66,56.76-73.61,2.48-1.67,11.33-7.09,21.88-7.09m0-7c-15.11,0-26.82,9.01-26.82,9.01,0,0-47.19,62.8-57.08,74.07-12.55,14.3-16.75,30.45-16.75,30.45v143.81l180.19,70.15,119.57-143.6s4.32-98.57,3.61-120.07c-.45-13.5-14.5-24.55-22.86-29.94-3.56-2.3-7.6-3.77-11.8-4.37-25.48-3.63-135.14-18.59-153.78-26.58-4.92-2.11-9.76-2.92-14.29-2.92h0Z"/>
        </g>
        <g>
          <g>
            <path class="cls-10" d="m935.81,578.91v-140.93c.73-2.51,5.13-16.37,15.88-28.62,9.55-10.88,52.45-67.9,56.94-73.86,1.97-1.39,12.04-8.03,24.34-8.03,4.49,0,8.83.89,12.91,2.64,17.54,7.52,111.43,20.74,146.78,25.72,3.13.44,5.79.81,7.88,1.11,3.78.54,7.27,1.83,10.39,3.85,7.77,5.01,20.86,15.2,21.26,27.11.66,19.87-3.07,107.41-3.56,118.63l-117.2,140.76-175.61-68.36Z"/>
            <path class="cls-5" d="m1032.97,330.96h0c4.01,0,7.89.79,11.53,2.35,15.93,6.83,87.29,17.46,147.68,25.97,3.12.44,5.78.81,7.87,1.11,3.27.47,6.29,1.58,8.99,3.32,5.79,3.74,19.3,13.58,19.66,24.28.63,19.16-2.86,102.08-3.5,117.18l-114.83,137.92-171.04-66.58v-138.04c.97-3.19,5.18-15.62,15.01-26.82,9.43-10.74,50.78-65.66,56.76-73.61,2.48-1.67,11.33-7.09,21.88-7.09m0-7c-15.11,0-26.82,9.01-26.82,9.01,0,0-47.19,62.8-57.08,74.07-12.55,14.3-16.75,30.45-16.75,30.45v143.81l180.19,70.15,119.57-143.6s4.32-98.57,3.61-120.07c-.45-13.5-14.5-24.55-22.86-29.94-3.56-2.3-7.6-3.77-11.8-4.37-25.48-3.63-135.14-18.59-153.78-26.58-4.92-2.11-9.76-2.92-14.29-2.92h0Z"/>
          </g>
          <polygon class="cls-14" points="1115.02 645.19 935.03 576.69 934.95 441.31 1218.86 518.69 1115.02 645.19"/>
          <path class="cls-14" d="m1131.46,619.64l97.9-113.16v-130l-59.98,71.13c-6,7.01-13.94,17.3-22.1,21.6l-13.56,8.04c-5.61,2.95-13.96,4.7-20.28,5.16l-85.41-8.12,103.42,145.36Z"/>
          <path class="cls-5" d="m1032.97,330.96h0c4.01,0,7.89.79,11.53,2.35,15.93,6.83,87.29,17.46,147.68,25.97,3.12.44,5.78.81,7.87,1.11,3.27.47,6.29,1.58,8.99,3.32,5.79,3.74,19.3,13.58,19.66,24.28.63,19.16-2.86,102.08-3.5,117.18l-114.83,137.92-171.04-66.58v-138.04c.97-3.19,5.18-15.62,15.01-26.82,9.43-10.74,50.78-65.66,56.76-73.61,2.48-1.67,11.33-7.09,21.88-7.09m0-7c-15.11,0-26.82,9.01-26.82,9.01,0,0-47.19,62.8-57.08,74.07-12.55,14.3-16.75,30.45-16.75,30.45v143.81l180.19,70.15,119.57-143.6s4.32-98.57,3.61-120.07c-.45-13.5-14.5-24.55-22.86-29.94-3.56-2.3-7.6-3.77-11.8-4.37-25.48-3.63-135.14-18.59-153.78-26.58-4.92-2.11-9.76-2.92-14.29-2.92h0Z"/>
        </g>
        <g>
          <g>
            <path class="cls-10" d="m844.06,714.67v-140.93c.73-2.51,5.13-16.37,15.88-28.62,9.55-10.88,52.45-67.9,56.94-73.86,1.97-1.39,12.04-8.03,24.34-8.03,4.49,0,8.83.89,12.91,2.64,17.54,7.52,111.43,20.74,146.78,25.72,3.13.44,5.79.82,7.88,1.11,3.78.54,7.27,1.83,10.39,3.85,7.77,5.01,20.86,15.2,21.26,27.11.66,19.87-3.07,107.41-3.56,118.63l-117.2,140.76-175.62-68.36Z"/>
            <path class="cls-5" d="m941.21,466.72h0c4.01,0,7.89.79,11.53,2.35,15.93,6.83,87.29,17.46,147.68,25.97,3.12.44,5.78.81,7.87,1.11,3.27.47,6.29,1.58,8.99,3.32,5.79,3.74,19.3,13.58,19.66,24.28.63,19.16-2.86,102.08-3.5,117.18l-114.83,137.92-171.04-66.58v-138.04c.97-3.19,5.18-15.62,15.01-26.82,9.43-10.74,50.78-65.66,56.76-73.61,2.48-1.67,11.33-7.09,21.88-7.09m0-7c-15.11,0-26.82,9.01-26.82,9.01,0,0-47.19,62.8-57.08,74.07-12.55,14.3-16.75,30.45-16.75,30.45v143.81l180.19,70.15,119.57-143.6s4.32-98.57,3.61-120.07c-.45-13.5-14.5-24.55-22.86-29.94-3.56-2.3-7.6-3.77-11.8-4.37-25.48-3.63-135.14-18.59-153.78-26.58-4.92-2.11-9.76-2.92-14.29-2.92h0Z"/>
          </g>
          <polygon class="cls-14" points="1023.26 780.94 843.27 712.45 843.19 577.07 1127.1 654.45 1023.26 780.94"/>
          <path class="cls-14" d="m1039.71,755.4l97.9-113.16v-130l-59.98,71.13c-6,7.01-13.94,17.3-22.1,21.6l-13.56,8.04c-5.61,2.95-13.96,4.7-20.28,5.16l-85.41-8.12,103.42,145.36Z"/>
          <path class="cls-5" d="m941.21,466.72h0c4.01,0,7.89.79,11.53,2.35,15.93,6.83,87.29,17.46,147.68,25.97,3.12.44,5.78.81,7.87,1.11,3.27.47,6.29,1.58,8.99,3.32,5.79,3.74,19.3,13.58,19.66,24.28.63,19.16-2.86,102.08-3.5,117.18l-114.83,137.92-171.04-66.58v-138.04c.97-3.19,5.18-15.62,15.01-26.82,9.43-10.74,50.78-65.66,56.76-73.61,2.48-1.67,11.33-7.09,21.88-7.09m0-7c-15.11,0-26.82,9.01-26.82,9.01,0,0-47.19,62.8-57.08,74.07-12.55,14.3-16.75,30.45-16.75,30.45v143.81l180.19,70.15,119.57-143.6s4.32-98.57,3.61-120.07c-.45-13.5-14.5-24.55-22.86-29.94-3.56-2.3-7.6-3.77-11.8-4.37-25.48-3.63-135.14-18.59-153.78-26.58-4.92-2.11-9.76-2.92-14.29-2.92h0Z"/>
        </g>
        <g>
          <g>
            <path class="cls-10" d="m743.43,846.6v-140.93c.73-2.51,5.13-16.37,15.88-28.62,9.55-10.88,52.45-67.9,56.94-73.86,1.97-1.39,12.04-8.03,24.34-8.03,4.49,0,8.83.89,12.91,2.64,17.54,7.52,111.45,20.74,146.81,25.72,3.12.44,5.77.81,7.85,1.11,3.77.54,7.27,1.83,10.39,3.85,7.77,5.01,20.86,15.2,21.26,27.11.66,19.87-3.07,107.41-3.56,118.63l-117.2,140.76-175.61-68.36Z"/>
            <path class="cls-5" d="m840.58,598.66h0c4.01,0,7.89.79,11.53,2.35,15.93,6.83,87.29,17.46,147.68,25.97,3.12.44,5.78.81,7.87,1.11,3.27.47,6.29,1.58,8.99,3.32,5.79,3.74,19.3,13.58,19.66,24.28.63,19.16-2.86,102.08-3.5,117.18l-114.83,137.92-171.04-66.58v-138.04c.97-3.19,5.18-15.62,15.01-26.82,9.43-10.74,50.78-65.66,56.76-73.61,2.48-1.67,11.33-7.09,21.88-7.09m0-7c-15.11,0-26.82,9.01-26.82,9.01,0,0-47.19,62.8-57.08,74.07-12.55,14.3-16.75,30.45-16.75,30.45v143.81l180.19,70.15,119.57-143.6s4.32-98.57,3.61-120.07c-.45-13.5-14.5-24.55-22.86-29.94-3.56-2.3-7.6-3.77-11.8-4.37-25.48-3.63-135.14-18.59-153.78-26.58-4.92-2.11-9.76-2.92-14.29-2.92h0Z"/>
          </g>
          <polygon class="cls-14" points="922.63 912.88 742.64 844.39 742.56 709 1026.47 786.38 922.63 912.88"/>
          <path class="cls-14" d="m939.08,887.34l97.9-113.16v-130l-59.98,71.13c-6,7.01-13.94,17.3-22.1,21.6l-13.56,8.04c-5.61,2.95-13.96,4.7-20.28,5.16l-85.41-8.12,103.42,145.36Z"/>
          <path class="cls-5" d="m840.58,598.66h0c4.01,0,7.89.79,11.53,2.35,15.93,6.83,87.29,17.46,147.68,25.97,3.12.44,5.78.81,7.87,1.11,3.27.47,6.29,1.58,8.99,3.32,5.79,3.74,19.3,13.58,19.66,24.28.63,19.16-2.86,102.08-3.5,117.18l-114.83,137.92-171.04-66.58v-138.04c.97-3.19,5.18-15.62,15.01-26.82,9.43-10.74,50.78-65.66,56.76-73.61,2.48-1.67,11.33-7.09,21.88-7.09m0-7c-15.11,0-26.82,9.01-26.82,9.01,0,0-47.19,62.8-57.08,74.07-12.55,14.3-16.75,30.45-16.75,30.45v143.81l180.19,70.15,119.57-143.6s4.32-98.57,3.61-120.07c-.45-13.5-14.5-24.55-22.86-29.94-3.56-2.3-7.6-3.77-11.8-4.37-25.48-3.63-135.14-18.59-153.78-26.58-4.92-2.11-9.76-2.92-14.29-2.92h0Z"/>
        </g>
        <g>
          <g>
            <path class="cls-10" d="m635,996.82v-140.93c.73-2.51,5.13-16.37,15.88-28.63,9.55-10.88,52.46-67.9,56.94-73.86,1.97-1.39,12.04-8.03,24.34-8.03,4.49,0,8.83.89,12.91,2.64,17.53,7.52,111.41,20.74,146.76,25.71,3.14.44,5.81.82,7.9,1.12,3.77.54,7.27,1.83,10.39,3.85,7.77,5.01,20.86,15.2,21.26,27.11.66,19.87-3.07,107.41-3.56,118.63l-117.2,140.76-175.62-68.36Z"/>
            <path class="cls-5" d="m732.15,748.87h0c4.01,0,7.89.79,11.53,2.35,15.92,6.83,87.29,17.46,147.68,25.97,3.13.44,5.78.81,7.87,1.11,3.27.47,6.29,1.58,8.99,3.32,5.79,3.74,19.3,13.58,19.66,24.28.63,19.16-2.86,102.08-3.5,117.18l-114.83,137.92-171.04-66.58v-138.04c.97-3.19,5.18-15.62,15.01-26.82,9.43-10.74,50.78-65.66,56.76-73.61,2.48-1.67,11.33-7.09,21.88-7.09m0-7c-15.11,0-26.82,9.01-26.82,9.01,0,0-47.19,62.8-57.08,74.07-12.55,14.3-16.75,30.45-16.75,30.45v143.81l180.19,70.15,119.57-143.6s4.32-98.57,3.61-120.07c-.45-13.5-14.5-24.55-22.86-29.94-3.56-2.3-7.6-3.77-11.8-4.37-25.48-3.63-135.14-18.59-153.78-26.58-4.92-2.11-9.76-2.92-14.29-2.92h0Z"/>
          </g>
          <polygon class="cls-14" points="814.2 1063.1 634.21 994.6 634.13 859.22 918.04 936.6 814.2 1063.1"/>
          <path class="cls-14" d="m830.65,1037.55l97.9-113.16v-130l-59.98,71.13c-6,7.01-13.94,17.3-22.1,21.6l-13.56,8.04c-5.61,2.95-13.96,4.7-20.28,5.16l-85.41-8.12,103.42,145.36Z"/>
          <path class="cls-5" d="m732.15,748.87h0c4.01,0,7.89.79,11.53,2.35,15.92,6.83,87.29,17.46,147.68,25.97,3.13.44,5.78.81,7.87,1.11,3.27.47,6.29,1.58,8.99,3.32,5.79,3.74,19.3,13.58,19.66,24.28.63,19.16-2.86,102.08-3.5,117.18l-114.83,137.92-171.04-66.58v-138.04c.97-3.19,5.18-15.62,15.01-26.82,9.43-10.74,50.78-65.66,56.76-73.61,2.48-1.67,11.33-7.09,21.88-7.09m0-7c-15.11,0-26.82,9.01-26.82,9.01,0,0-47.19,62.8-57.08,74.07-12.55,14.3-16.75,30.45-16.75,30.45v143.81l180.19,70.15,119.57-143.6s4.32-98.57,3.61-120.07c-.45-13.5-14.5-24.55-22.86-29.94-3.56-2.3-7.6-3.77-11.8-4.37-25.48-3.63-135.14-18.59-153.78-26.58-4.92-2.11-9.76-2.92-14.29-2.92h0Z"/>
        </g>
        <g>
          <g>
            <path class="cls-10" d="m531.47,1106.87v-140.93c.73-2.51,5.13-16.37,15.88-28.63,9.55-10.88,52.45-67.9,56.94-73.86,1.97-1.39,12.04-8.03,24.34-8.03,4.49,0,8.83.89,12.91,2.64,17.53,7.52,111.41,20.74,146.76,25.71,3.14.44,5.81.82,7.9,1.12,3.78.54,7.27,1.83,10.39,3.85,7.77,5.01,20.86,15.2,21.26,27.11.66,19.87-3.07,107.41-3.56,118.63l-117.2,140.76-175.62-68.36Z"/>
            <path class="cls-5" d="m628.62,858.93h0c4.01,0,7.89.79,11.53,2.35,15.93,6.83,87.29,17.46,147.68,25.97,3.12.44,5.78.81,7.87,1.11,3.27.47,6.29,1.58,8.99,3.32,5.79,3.74,19.3,13.58,19.66,24.28.63,19.16-2.86,102.08-3.5,117.18l-114.83,137.92-171.04-66.58v-138.04c.97-3.19,5.18-15.62,15.01-26.82,9.43-10.74,50.78-65.66,56.76-73.61,2.48-1.67,11.33-7.09,21.88-7.09m0-7c-15.11,0-26.82,9.01-26.82,9.01,0,0-47.19,62.8-57.08,74.07-12.55,14.3-16.75,30.45-16.75,30.45v143.81l180.19,70.15,119.57-143.6s4.32-98.57,3.61-120.07c-.45-13.5-14.5-24.55-22.86-29.94-3.56-2.3-7.6-3.77-11.8-4.37-25.48-3.63-135.14-18.59-153.78-26.58-4.92-2.11-9.76-2.92-14.29-2.92h0Z"/>
          </g>
          <polygon class="cls-14" points="710.67 1173.15 530.68 1104.66 530.6 969.27 814.51 1046.65 710.67 1173.15"/>
          <path class="cls-14" d="m727.12,1147.6l97.9-113.16v-130l-59.98,71.13c-6,7.01-13.94,17.3-22.1,21.6l-13.56,8.04c-5.61,2.95-13.96,4.7-20.28,5.16l-85.41-8.12,103.42,145.36Z"/>
          <path class="cls-5" d="m628.62,858.93h0c4.01,0,7.89.79,11.53,2.35,15.93,6.83,87.29,17.46,147.68,25.97,3.12.44,5.78.81,7.87,1.11,3.27.47,6.29,1.58,8.99,3.32,5.79,3.74,19.3,13.58,19.66,24.28.63,19.16-2.86,102.08-3.5,117.18l-114.83,137.92-171.04-66.58v-138.04c.97-3.19,5.18-15.62,15.01-26.82,9.43-10.74,50.78-65.66,56.76-73.61,2.48-1.67,11.33-7.09,21.88-7.09m0-7c-15.11,0-26.82,9.01-26.82,9.01,0,0-47.19,62.8-57.08,74.07-12.55,14.3-16.75,30.45-16.75,30.45v143.81l180.19,70.15,119.57-143.6s4.32-98.57,3.61-120.07c-.45-13.5-14.5-24.55-22.86-29.94-3.56-2.3-7.6-3.77-11.8-4.37-25.48-3.63-135.14-18.59-153.78-26.58-4.92-2.11-9.76-2.92-14.29-2.92h0Z"/>
        </g>
        <g>
          <g>
            <path class="cls-10" d="m427.28,1243.43v-140.93c.73-2.51,5.13-16.37,15.88-28.62,9.55-10.88,52.45-67.9,56.94-73.86,1.97-1.39,12.04-8.03,24.34-8.03,4.49,0,8.83.89,12.91,2.64,17.53,7.52,111.41,20.74,146.76,25.71,3.14.44,5.81.82,7.9,1.12,3.78.54,7.27,1.83,10.39,3.85,7.77,5.01,20.86,15.2,21.26,27.11.66,19.87-3.07,107.41-3.56,118.63l-117.2,140.76-175.61-68.36Z"/>
            <path class="cls-5" d="m524.43,995.49h0c4.01,0,7.89.79,11.53,2.35,15.92,6.83,87.29,17.46,147.68,25.97,3.13.44,5.78.81,7.87,1.11,3.27.47,6.29,1.58,8.99,3.32,5.79,3.74,19.3,13.58,19.66,24.28.63,19.16-2.86,102.08-3.5,117.18l-114.83,137.92-171.04-66.58v-138.02c.99-3.21,5.27-15.73,15.01-26.83,9.43-10.74,50.78-65.66,56.76-73.61,2.48-1.67,11.33-7.09,21.88-7.09m0-7c-15.11,0-26.82,9.01-26.82,9.01,0,0-47.19,62.8-57.08,74.07-12.55,14.3-16.75,30.45-16.75,30.45v143.81l180.19,70.15,119.57-143.6s4.32-98.57,3.61-120.07c-.45-13.5-14.5-24.55-22.86-29.94-3.56-2.3-7.6-3.77-11.8-4.37-25.48-3.63-135.14-18.59-153.78-26.58-4.92-2.11-9.76-2.92-14.29-2.92h0Z"/>
          </g>
          <polygon class="cls-14" points="606.48 1309.71 426.49 1241.22 426.41 1105.83 710.32 1183.21 606.48 1309.71"/>
          <path class="cls-14" d="m622.92,1284.16l97.9-113.16v-130l-59.98,71.13c-6,7.01-13.94,17.3-22.1,21.6l-13.56,8.04c-5.61,2.95-13.96,4.7-20.28,5.16l-85.41-8.12,103.42,145.36Z"/>
          <path class="cls-5" d="m524.43,995.49h0c4.01,0,7.89.79,11.53,2.35,15.92,6.83,87.29,17.46,147.68,25.97,3.13.44,5.78.81,7.87,1.11,3.27.47,6.29,1.58,8.99,3.32,5.79,3.74,19.3,13.58,19.66,24.28.63,19.16-2.86,102.08-3.5,117.18l-114.83,137.92-171.04-66.58v-138.02c.99-3.21,5.27-15.73,15.01-26.83,9.43-10.74,50.78-65.66,56.76-73.61,2.48-1.67,11.33-7.09,21.88-7.09m0-7c-15.11,0-26.82,9.01-26.82,9.01,0,0-47.19,62.8-57.08,74.07-12.55,14.3-16.75,30.45-16.75,30.45v143.81l180.19,70.15,119.57-143.6s4.32-98.57,3.61-120.07c-.45-13.5-14.5-24.55-22.86-29.94-3.56-2.3-7.6-3.77-11.8-4.37-25.48-3.63-135.14-18.59-153.78-26.58-4.92-2.11-9.76-2.92-14.29-2.92h0Z"/>
        </g>
        <g>
          <g>
            <path class="cls-10" d="m320.22,1388.03v-140.93c.73-2.51,5.13-16.37,15.88-28.62,9.55-10.88,52.46-67.9,56.94-73.86,1.97-1.39,12.04-8.03,24.34-8.03,4.49,0,8.83.89,12.91,2.64,17.53,7.52,111.41,20.74,146.76,25.71,3.14.44,5.81.82,7.9,1.12,3.77.54,7.27,1.83,10.39,3.85,7.77,5.01,20.86,15.2,21.26,27.11.66,19.87-3.07,107.41-3.56,118.63l-117.2,140.76-175.62-68.36Z"/>
            <path class="cls-5" d="m417.37,1140.08h0c4.01,0,7.89.79,11.53,2.35,15.93,6.83,87.29,17.46,147.68,25.97,3.12.44,5.78.81,7.87,1.11,3.27.47,6.29,1.58,8.99,3.32,5.79,3.74,19.3,13.58,19.66,24.28.63,19.16-2.86,102.08-3.5,117.18l-114.83,137.92-171.04-66.58v-138.02c.99-3.21,5.27-15.73,15.01-26.83,9.43-10.74,50.78-65.66,56.76-73.61,2.48-1.67,11.33-7.09,21.88-7.09m0-7c-15.11,0-26.82,9.01-26.82,9.01,0,0-47.19,62.8-57.08,74.07-12.55,14.3-16.75,30.45-16.75,30.45v143.81l180.19,70.15,119.57-143.6s4.32-98.57,3.61-120.07c-.45-13.5-14.5-24.55-22.86-29.94-3.56-2.3-7.6-3.77-11.8-4.37-25.48-3.63-135.14-18.59-153.78-26.58-4.92-2.11-9.76-2.92-14.29-2.92h0Z"/>
          </g>
          <path class="cls-14" d="m515.87,1428.76l97.9-113.16v-130l-59.98,71.13c-6,7.01-13.94,17.3-22.1,21.6l-13.56,8.04c-5.61,2.95-13.96,4.7-20.28,5.16l-85.41-8.12,103.42,145.36Z"/>
          <path class="cls-5" d="m417.37,1140.08h0c4.01,0,7.89.79,11.53,2.35,15.93,6.83,87.29,17.46,147.68,25.97,3.12.44,5.78.81,7.87,1.11,3.27.47,6.29,1.58,8.99,3.32,5.79,3.74,19.3,13.58,19.66,24.28.63,19.16-2.86,102.08-3.5,117.18l-114.83,137.92-171.04-66.58v-138.02c.99-3.21,5.27-15.73,15.01-26.83,9.43-10.74,50.78-65.66,56.76-73.61,2.48-1.67,11.33-7.09,21.88-7.09m0-7c-15.11,0-26.82,9.01-26.82,9.01,0,0-47.19,62.8-57.08,74.07-12.55,14.3-16.75,30.45-16.75,30.45v143.81l180.19,70.15,119.57-143.6s4.32-98.57,3.61-120.07c-.45-13.5-14.5-24.55-22.86-29.94-3.56-2.3-7.6-3.77-11.8-4.37-25.48-3.63-135.14-18.59-153.78-26.58-4.92-2.11-9.76-2.92-14.29-2.92h0Z"/>
        </g>
      </g>
      <polygon class="cls-12" points="2238.66 696.21 1195.1 543.25 1140.9 611.13 1041.33 735.83 1032.48 758.58 972.9 835.85 933.37 872.59 918.04 903.27 829.11 1002.33 814.51 1028.26 724.14 1133.08 710.32 1164.61 620.16 1263.3 2238.66 1263.3 2238.66 696.21"/>
      <g>
        <path class="cls-9" d="m1780.57,466.86s-63.11,51.94-125.69-17.36c0,0-68.76,54.93-85.52-21.14,0,0-118.5,74.63-113.5-47.46,0,0-15.03,9.81-16.41,0-2.07-14.73-27.03-3.6-39.88-4.2-53.23-2.45-117.25-7.72-68-36.84,0,0-158.8,19.18-92.83-70.62,0,0-54.04-12.47,21.41-48.86,0,0-22.38-33.22,60.89-36.9,0,0-47.29-12.44,5.69-39.99,0,0-35.22-21,16.97-42.14,0,0-45.49-41.38,42.84-72.49,0,0-78.42-21.95,30.95-47.55,0,0-39.42-58.25,32.73-44.54,0,0-44.05-67.66,51.39-71.93,0,0-29.66-72.34,37-50.71,0,0-20.78-15.09,10.22-17.42,0,0-6.9-42.14,36.8-21.53,0,0,12.26-49.6,74.42-16.7,0,0,88.68-34.32,119.79,21.39l473.33,102.48-177.01,716.24-295.58-131.73Z"/>
        <path class="cls-13" d="m2031.41,383.4s-48.81,66.65-126.19,13.53c0,0-53.57,70.98-88.09,0,0,0-97.13,102.56-121.58-19.16,0,0-12.24,13.34-15.93,4-5.54-14.03-27.1,3.04-39.72,5.59-52.27,10.56-115.68,20.98-74.85-19.77,0,0-149.56,57.66-107.06-47.05,0,0-55.46.88,9.06-53.44,0,0-29.7-27.33,50.25-51.27,0,0-48.89-.74-4.07-40.86,0,0-39.23-12.13,6.36-45.73,0,0-54.09-29.74,24.2-81.99,0,0-81.39-2.53,18.63-54.48,0,0-52.25-47.87,21.09-51.95,0,0-59-56.03,32.63-83.53,0,0-46.15-64.16,23.76-59.07,0,0-23.8-9.82,5.74-19.68,0,0-16.81-39.9,30.56-30.23,0,0,0-51.95,68.24-34.63,0,0,77.85-55.5,121.43-8.1l484.09-14.3V441.31l-318.56-57.91Z"/>
        <path class="cls-13" d="m1623.62,753.03s-48.81,66.65-126.19,13.53c0,0-53.57,70.98-88.09,0,0,0-97.13,102.56-121.58-19.16,0,0-12.24,13.34-15.93,4-5.54-14.03-27.1,3.04-39.72,5.59-52.27,10.56-115.68,20.98-74.85-19.77,0,0-149.56,57.66-107.06-47.05,0,0-55.46.88,9.06-53.44,0,0-29.7-27.33,50.25-51.27,0,0-48.89-.74-4.07-40.86,0,0-39.23-12.13,6.36-45.73,0,0-54.09-29.74,24.2-81.99,0,0-81.39-2.53,18.63-54.48,0,0-52.25-47.87,21.09-51.95,0,0-59-56.03,32.63-83.53,0,0-46.15-64.16,23.76-59.07,0,0-23.8-9.82,5.74-19.68,0,0-16.81-39.9,30.56-30.23,0,0,0-51.95,68.24-34.63,0,0,77.85-55.5,121.43-8.1l484.09-14.3v750.04l-318.56-57.91Z"/>
        <path class="cls-15" d="m1778.76,731.21s-36.21,74.25-121.79,35.69c0,0-40.13,79.36-86.7,15.62,0,0-77.4,118.16-123.05,2.71,0,0-9.68,15.3-14.96,6.76-7.94-12.82-26.13,7.79-38.1,12.54-49.56,19.66-110.13,41.16-77.17-6.19,0,0-136.97,83.27-113.71-27.32,0,0-54.42,10.7-.56-54.2,0,0-34.08-21.63,40.37-59.37,0,0-48.25,7.94-11.26-39.49,0,0-40.76-4.98-1.85-46.13,0,0-58.51-19.68,9.27-84.98,0,0-80.55,11.94,8.68-56.92,0,0-59.91-37.85,11.54-54.86,0,0-68-44.68,17.3-87.99,0,0-56.8-54.96,12.91-62.35,0,0-25.16-5.45,2.16-20.39,0,0-23.62-36.29,24.71-35.17,0,0-9.21-51.12,61.02-46.18,0,0,66.78-68.43,118.07-29.51L1969.52-6.44l133.02,738.15-323.78-.5Z"/>
        <path class="cls-9" d="m1946.6,638.55s-50.69,64.12-126.52,9.64c0,0-55.57,68.24-88.06-2.56,0,0-100.02,98.02-120.98-22.36,0,0-12.61,12.77-16.03,3.47-5.14-13.95-27.18,2.2-39.86,4.34-52.54,8.87-116.23,17.27-74.25-21.61,0,0-151.15,52.35-105.67-49.37,0,0-55.46-.75,10.58-52.29,0,0-28.91-27.73,51.7-48.95,0,0-48.85-2.15-2.91-40.29,0,0-38.87-13.07,7.66-44.78,0,0-53.22-30.81,26.53-79.92,0,0-81.29-4.85,20.18-53.03,0,0-50.86-48.59,22.56-50.46,0,0-57.37-56.81,35-81.18,0,0-44.3-64.42,25.43-57.39,0,0-23.51-10.35,6.3-19.18,0,0-15.66-39.72,31.41-28.83,0,0,1.48-51.08,69.2-32.07,0,0,79.41-52.32,121.61-4.45l484.3-.02-21.41,737.48-316.77-66.19Z"/>
        <path class="cls-2" d="m1898.43,883.13s-69.53,68.04-126.16-17.28c0,0-75.58,72.03-84.89-23.55,0,0-128.21,98.8-110.69-55.8,0,0-16.3,12.96-16.7.61-.6-18.55-27.14-3.55-40.16-3.82-53.93-1.12-118.55-5.4-65.45-44.06,0,0-163.58,30.16-87.28-85.86,0,0-53.73-13.76,26.76-62.6,0,0-19.4-41.19,65.73-48.93,0,0-46.86-13.97,9.86-50.79,0,0-33.71-25.25,21.56-53.93,0,0-42.08-50.64,50.99-93.28,0,0-77.58-24.84,36.34-61.29,0,0-34.19-72.2,37.85-57.56,0,0-37.94-83.94,59.63-92.89,0,0-22.82-90.39,42.83-65.51,0,0-19.62-18.31,12.17-22.41,0,0-2.73-53.04,39.65-28.61,0,0,17.53-63.19,77.45-23.89,0,0,93.75-46.71,119.74,22.6l471.3,112.01-253.13,912.45-287.42-155.61Z"/>
        <path class="cls-13" d="m2236.31,753.03s-48.81,66.65-126.19,13.53c0,0-53.57,70.98-88.09,0,0,0-97.13,102.56-121.58-19.16,0,0-12.24,13.34-15.93,4-5.54-14.03-27.1,3.04-39.72,5.59-52.27,10.56-115.68,20.98-74.85-19.77,0,0-149.56,57.66-107.06-47.05,0,0-55.46.88,9.06-53.44,0,0-29.7-27.33,50.25-51.27,0,0-48.89-.74-4.07-40.86,0,0-39.23-12.13,6.36-45.73,0,0-54.09-29.74,24.2-81.99,0,0-81.39-2.53,18.63-54.48,0,0-52.25-47.87,21.09-51.95,0,0-59-56.03,32.63-83.53,0,0-46.15-64.16,23.76-59.07,0,0-23.8-9.82,5.74-19.68,0,0-16.81-39.9,30.56-30.23,0,0,0-51.95,68.24-34.63,0,0,77.85-55.5,121.43-8.1l484.09-14.3v750.04l-318.56-57.91Z"/>
      </g>
      <g>
        <path class="cls-11" d="m1896.05,1000.21s-62.87,20.04-107.78-19.34c-44.91-39.38-27.64-19.71-27.64-19.71,0,0-149.23-6.38-114.69-73.82,0,0-114.69-26.68-80.14-63.99,0,0,59.42-209.08,151.99-199.88,0,0,49.74-105.9,114.69-111.22,0,0,150.61-71.64,225.23-34.34l-8.29,527.4-153.38-5.1Z"/>
        <path class="cls-21" d="m1896.05,944.52s-58.54,53.31-100.5,14.58c-32.43-29.94-14.97-58.21-14.97-58.21,0,0-151.8,8.84-117.26-51.56,0,0-132.06,7.43-97.51-25.98,0,0,59.42-224.45,151.99-216.21,0,0,49.74-94.84,114.69-99.6,0,0,150.61-64.16,225.23-30.75l-8.29,472.3-153.38-4.56Z"/>
        <path class="cls-11" d="m1758.13,623.46s48.65-3.25,61.54,80.33c0,0-8.32-79.84,57.38-137.22,0,0-66.53,63.46-118.92,56.89Z"/>
        <path class="cls-11" d="m1824.66,823.55s59.46-77.76,103.95-64.04c0,0-72.35,1.24-65.7-23.29,0,0,24.53,28.28-38.25,87.32Z"/>
      </g>
      <g>
        <path class="cls-12" d="m-41.51,841.77l4.67-31.65,5.57-37.73,6.65,47.9,16.92-34.73s5.52-20.04,8.71-37.76-5.23,54.03-5.23,54.03l26.72-24.4,25.56-86.56-14.52,80.17,55.77-62.03s7.55-62.3-10.46-80.89c0,0,20.33,9.59,21.5,69.71,0,0-.87-35.25,11.04-46.38,0,0-14.52,41.44,0,40.57l31.95-40.57,8.71-55.28v48.8l8.13-36.6v24.98l48.72-54.05s-11.54-50.23,12.86-72.6c0,0-22.45,38.11-6.29,65.82,0,0,4.25-35.61,15-44.32,0,0-17.14,38.63-4.07,40.67l34.28-37.76v-34.28l6.97,26.72,20.66-21.13,6.72-47.05v40.81l11.52-34.09-5.21,29.29,31.62-36.01s12.24-26.41,10.56-49.93c0,0,3.68,23.53.16,41.29l10.4-35.05-2.4,27.37,15.84-16.8,3.36-31.21,6.11,43.21L-41.51,879.77v-38Z"/>
        <path class="cls-12" d="m-122.88,923.16l5.12-31.58,6.1-37.65,5.98,47.99,17.41-34.49s5.8-19.96,9.25-37.64c3.45-17.67-5.99,53.95-5.99,53.95l27.07-24.02,26.78-86.19-15.65,79.96,56.64-61.24s8.43-62.18-9.31-81.03c0,0,20.2,9.87,20.51,70.01,0,0-.37-35.26,11.69-46.22,0,0-15.11,41.24-.57,40.57l32.52-40.12,9.49-55.16-.69,48.8,8.65-36.48-.35,24.98,49.48-53.36s-10.83-50.39,13.88-72.41c0,0-22.98,37.79-7.21,65.72,0,0,4.75-35.55,15.62-44.11,0,0-17.68,38.39-4.64,40.61l34.81-37.27.48-34.27,6.59,26.82,20.96-20.83,7.39-46.95-.58,40.81,12-33.92-5.62,29.21,32.12-35.56s12.61-26.23,11.27-49.78c0,0,3.35,23.58-.42,41.29l10.9-34.9-2.79,27.33,16.08-16.58,3.8-31.16,5.5,43.29L-123.42,961.16l.54-37.99Z"/>
      </g>
      <g>
        <path class="cls-12" d="m681.82,1208.96l1.17-31.97,1.4-38.11,11.87,46.88,13.01-36.38s3.29-20.53,4.52-38.49.73,54.28.73,54.28l23.88-27.19,15.91-88.85-5.64,81.28,48.63-67.78s.67-62.75-19.27-79.25c0,0,21.26,7.3,29.02,66.93,0,0-4.74-34.94,5.88-47.31,0,0-9.89,42.79,4.45,40.33l27.31-43.84,2.59-55.91,5.36,48.51,4.07-37.27,2.74,24.83,42.5-59.07s-16.99-48.66,4.81-73.57c0,0-18.13,40.34.98,66.11,0,0,.32-35.86,10.04-45.7,0,0-12.79,40.28.42,40.87l29.92-41.3-3.76-34.07,9.86,25.8,18.22-23.27,1.52-47.51,4.48,40.56,7.71-35.15-1.97,29.68,27.48-39.26s9.27-27.59,5.02-50.79c0,0,6.24,22.98,4.69,41.02l6.49-35.98.62,27.47,13.9-18.44-.08-31.39,10.82,42.28-367.12,488.78-4.17-37.77Z"/>
        <path class="cls-12" d="m609.88,1298.79l1.62-31.95,1.93-38.09,11.21,47.04,13.52-36.19s3.58-20.48,5.06-38.42c1.48-17.94-.03,54.28-.03,54.28l24.27-26.85,17.16-88.61-6.78,81.19,49.58-67.08s1.55-62.73-18.15-79.51c0,0,21.16,7.6,28.07,67.34,0,0-4.24-35.01,6.55-47.23,0,0-10.49,42.64,3.88,40.39l27.92-43.45,3.38-55.86,4.67,48.58,4.59-37.21,2.39,24.87,43.33-58.47s-16.3-48.89,5.85-73.49c0,0-18.7,40.08.04,66.12,0,0,.82-35.85,10.69-45.56,0,0-13.36,40.1-.16,40.87l30.5-40.87-3.28-34.12,9.5,25.93,18.54-23.01,2.19-47.48,3.91,40.62,8.21-35.04-2.38,29.65,28.03-38.87s9.66-27.46,5.73-50.72c0,0,5.91,23.07,4.11,41.09l7-35.88.23,27.47,14.16-18.24.36-31.39,10.22,42.43-373.99,483.55-3.64-37.82Z"/>
      </g>
      <g>
        <path class="cls-12" d="m1997.82,1044.98l-21.98-48.59-26.2-57.92,22.37,91.6-33.49-37.79s-15.95-27.4-28.72-53.84c-12.77-26.44,35.34,86.56,35.34,86.56l-35.3-7.02-70.27-116.07,57.82,119.54-80.09-33.87s-41.96-97.8-38.4-153.66c0,0-10.61,43.34,23.18,148.87,0,0-19.66-62.12-35.54-65.69,0,0,35.46,52.56,23.42,70.17l-48.79-28.11-38.84-84.15,28.17,84.4-27.59-52.6,14.42,43.21-69.89-29.35s-19.84-102.07-52.12-108.64c0,0,39.82,36.36,42.99,105.57,0,0-23.93-55.99-37.5-56.92,0,0,35.91,44.26,26.71,64.98l-49.01-20.19-19.79-59.28,9.89,55.4-28.6-9.35-32.5-72.53,23.56,70.59-28.83-43.79,21.05,43.8-45.89-20.66s-24.97-29.56-37.21-72.46c0,0,10.66,45.53,23.71,71.62l-28.5-46.92,17.71,44.17-22.28-8.21-20.69-49.55,20.09,82.78,589.51,219.62-21.94-65.72Z"/>
        <path class="cls-12" d="m2109.41,1078.64l-22.3-47.88-26.58-57.08,22.96,90.86-33.74-36.73s-16.13-26.89-29.07-52.92c-12.94-26.03,35.9,85.42,35.9,85.42l-35.36-5.92-71.02-113.82,58.59,117.69-80.32-31.35s-42.59-96.45-39.38-152.4c0,0-10.33,43.66,24.14,148.09,0,0-20.06-61.48-35.97-64.55,0,0,35.8,51.43,23.88,69.41l-48.98-26.58-39.38-82.9,28.72,83.49-27.93-51.71,14.7,42.74-70.09-27.15s-20.49-101.41-52.82-106.96c0,0,40.06,35.1,43.67,104.18,0,0-24.3-55.22-37.87-55.72,0,0,36.2,43.12,27.13,64.12l-49.15-18.65-20.17-58.64,10.25,55.07-28.67-8.45-32.97-71.49,24.02,69.82-29.11-42.87,21.33,43.12-46.03-19.22s-25.16-28.76-37.68-71.27c0,0,10.96,45.18,24.17,70.85l-28.8-46.01,17.99,43.6-22.34-7.51-21.01-48.89,20.63,82.12,591.04,201.1-22.36-65.01Z"/>
      </g>
    </g>
  </g>
</svg>