<?xml version="1.0" encoding="UTF-8"?>
<svg id="Layer_4" data-name="Layer 4" xmlns="http://www.w3.org/2000/svg" xmlns:xlink="http://www.w3.org/1999/xlink" viewBox="0 0 1920 1200">
  <defs>
    <style>
      .cls-1 {
        opacity: .68;
      }

      .cls-2 {
        fill: #aa834b;
      }

      .cls-2, .cls-3, .cls-4, .cls-5, .cls-6, .cls-7, .cls-8, .cls-9, .cls-10, .cls-11, .cls-12, .cls-13, .cls-14, .cls-15, .cls-16, .cls-17, .cls-18, .cls-19, .cls-20, .cls-21, .cls-22, .cls-23, .cls-24, .cls-25, .cls-26, .cls-27, .cls-28, .cls-29, .cls-30, .cls-31, .cls-32, .cls-33, .cls-34, .cls-35, .cls-36, .cls-37 {
        stroke-width: 0px;
      }

      .cls-3 {
        fill: #8daf3c;
      }

      .cls-4 {
        fill: #87892e;
      }

      .cls-5 {
        fill: #4f4837;
      }

      .cls-6 {
        opacity: .69;
      }

      .cls-6, .cls-28 {
        fill: #7ec144;
      }

      .cls-7 {
        opacity: .4;
      }

      .cls-7, .cls-33 {
        fill: #9dc947;
      }

      .cls-8 {
        fill: #52ad34;
      }

      .cls-9 {
        fill: #37664e;
      }

      .cls-10 {
        fill: #4c4a32;
      }

      .cls-11 {
        fill: #5b6d29;
      }

      .cls-12 {
        fill: #494930;
      }

      .cls-13 {
        fill: #7a7a52;
      }

      .cls-14 {
        fill: #6b5641;
      }

      .cls-15 {
        fill: none;
      }

      .cls-16 {
        opacity: .79;
      }

      .cls-16, .cls-36 {
        fill: #668251;
      }

      .cls-17 {
        fill: #5e5640;
      }

      .cls-18 {
        fill: #726a26;
      }

      .cls-19 {
        fill: #7e8259;
      }

      .cls-20 {
        fill: #847756;
      }

      .cls-21 {
        fill: #7a6447;
      }

      .cls-22 {
        fill: #ecf993;
      }

      .cls-23 {
        fill: #968d66;
      }

      .cls-24 {
        fill: #7fb52a;
      }

      .cls-25 {
        fill: #565622;
      }

      .cls-26 {
        fill: #43442b;
      }

      .cls-38 {
        clip-path: url(#clippath);
      }

      .cls-27 {
        fill: #56543b;
        opacity: .7;
      }

      .cls-29 {
        fill: #56ad1e;
      }

      .cls-30 {
        fill: #6d6449;
      }

      .cls-31 {
        fill: #9e8d64;
      }

      .cls-32 {
        fill: #80b23f;
      }

      .cls-34 {
        fill: #91b22b;
      }

      .cls-35 {
        fill: #778735;
      }

      .cls-37 {
        fill: #877932;
      }
    </style>
    <clipPath id="clippath">
      <rect class="cls-15" width="1920" height="1200"/>
    </clipPath>
  </defs>
  <g class="cls-38">
    <g>
      <rect class="cls-22" x="-98.58" y="-46.81" width="986.76" height="707.29"/>
      <path class="cls-7" d="m708.83,11.55s30.14,35.69-15.78,46.45c0,0,54.83,70.63-87.47,18.08,0,0,17.08,73.22-115.29,39.81,0,0,134.39,196.17-131.02,16.24,0,0,14.33,137.29-153.35.55,0,0,32.61,102.64-61.38-32.43,0,0,22.23,108.2-47.53,13.92,0,0,9.88,88.58-129.43,19.47,0,0,137.11,134.56-177.25,61.54C-524.02,122.14-67.63-173.36-121.46-46.77c0,0,174.82-146.67,122.13-27.67,0,0,82.16-120.58,55.26-38.62,0,0,126.46-78.9,89.51,5.6,0,0,134.88-72.31,99.71,4.54,0,0,68.73-63.92,53.2,3.42,0,0,50.05-51.52,35.92,23.14,0,0,129.39-121.02,115.28-38.9,0,0,154.55-80.33,102.13,10.26,0,0,98.14-134.19,81.42-47.32,0,0,79.94-42.68,34.19,56.18,0,0,108.32-36.68,41.53,107.69Z"/>
      <path class="cls-7" d="m1225.92,274.86s14.18,42.32-32.1,33.51c0,0,23.63,81.86-87.25-18.85,0,0-12.05,69.27-121.05-11.19,0,0,49.19,220.36-126.59-37.5,0,0-38.85,122.95-141.16-59.67,0,0-8.92,100.51-44.13-51.79,0,0-20.56,101.19-48.96-6.74,0,0-24.49,79.58-126.35-34.12,0,0,75.04,168.77-186.23-16.91C50.84-114.09,582.29-187.66,484.85-100.59c0,0,216.26-56.79,122.74,24.25,0,0,121.21-70.83,65.43-11.33,0,0,146.13-17.84,80.15,39.89,0,0,151.37-8.9,89.93,42.98,0,0,87.4-27.67,47.6,23.78,0,0,65.52-24.4,24.25,33.86,0,0,164.79-52.69,120.7,11.96,0,0,172.49-8.05,89.98,48.82,0,0,141.06-76.2,92.77-8.51,0,0,89.65-5.13,10.14,61.42,0,0,113.46,11.13-2.63,108.32Z"/>
      <path class="cls-3" d="m-137.92,562.13s775.72,21.1,895.23,46.15c119.51,25.05,36.64,224.02,36.64,224.02l-945.73-105.9,13.86-164.26Z"/>
      <path class="cls-29" d="m-53.92,632.92s774.81-42.98,895.99-27.88,55.01,220.23,55.01,220.23l-951.25-27.5.26-164.84Z"/>
      <path class="cls-24" d="m-83.28,723.85s428.58,7.45,567.24,28.65,350.66-46.67,350.66-46.67l-5.95,296.11H-120.12l36.85-278.1Z"/>
      <path class="cls-34" d="m-93.02,972.35s437.85-81.96,766.63-49.11,115.75,81.46,115.75,81.46l-60.74,316.18-834.24-91.68,12.61-256.85Z"/>
      <g>
        <path class="cls-36" d="m509.94,632.94s1.93-13.73,16.19-11.25c0,0-4.98-5.11,3.52-3.86,0,0-8.37-2.14-2.23-4.86,0,0-19.53-.89-8.93-3.83,0,0-4.6-4.42,3.35-2.65,0,0-12.27-8.55-.84-6.63,0,0-6.27-14.88,10.88-10.01,0,0-6.83-3.32,0-2.36,0,0,8.51-14.95,24.55-8.1,0,0-7.39-8.77,5.3-5.3,0,0-9.76-4.79,0-4.27,0,0,.56-9.64,10.74-8.24,0,0-2.09-3.59,7.95-2.56,0,0,.98-8.64,15.9-3.34,0,0,.84-2.73,6.69-1.03,0,0-5.02-6.26,9.21-5.01,0,0,1.68-7.22,6.42-2.8,0,0-.84-3.75,7.81-1.43,0,0-3.21-8.22,14.51-6.74,0,0-.28-4.6,11.44-2.92,0,0-3.62-9.08,6.7-4.44,0,0,4.83-9.08,14.23-3.18,0,0,10.36-10.19,16.46-1.99l1.65,106.84-181.5-.05Z"/>
        <path class="cls-29" d="m464.44,637.68s13.6-16.05,24.79-3.35c0,0,1.81-13.56,10.28-4.89,0,0,23.28-8.98,28.11.53,0,0-1.81-6.78,9.67,0,0,0,18.44-7.73,14.21-1.38,0,0,14.81-5.68,18.44,3.05,0,0,6.35-11.97,8.46-4.26,0,0,15.11-6.35,11.49,1.21,0,0,8.92-7.26,18.44-.6,0,0,9.52-8.73,19.95,1.99,0,0,19.95-12.57,18.14-3.5,0,0,3.48-6.65,10.58,1.21,0,0,26.6-12.55,22.37-1.81,0,0,9.82-6.28,18.14,3.74,0,0,7.56-10.02,15.11,0l1.51,11.98-249.7,2.72v-6.63Z"/>
        <g>
          <path class="cls-32" d="m-57.13,119.89s-3-11.91,11.09.07c0,0-4.62-22.2,26.48,23.03,0,0,6.05-11.76,37.24,28.84,0,0-7.95-56.59,38.09,35.53,0,0,16.17-17.05,41.88,43.33,0,0,6.12-18.94,11.99,20.43,0,0,9.76-16.54,14.99,12.13,0,0,10.26-11.18,38.12,34.77,0,0-17.7-51.53,57.31,44.31,75,95.84-92.59-5.28-59.41-2.04,0,0-69.09-35.56-37.33-31.93,0,0-40.02-11.82-20.71-11.98,0,0-46-28.3-23.58-25.85,0,0-47.33-31.31-26.51-28.64,0,0-28.08-13.39-14-15.37,0,0-21.17-9.28-6.41-12.35,0,0-52.96-25.14-37.11-28.93,0,0-53.87-36.11-26.33-29.86,0,0-46.37-15.05-29.11-18.55,0,0-28.03-18.57-1.11-14.99,0,0-34.89-27.17,4.43-21.94Z"/>
          <path class="cls-32" d="m106.7-5.14s1.44-12.19,10.34,4.01c0,0,3.59-22.39,16.55,30.95,0,0,9.84-8.84,24.53,40.21,0,0,12.72-55.71,22.94,46.76,0,0,21.18-10.18,23.7,55.4,0,0,12.46-15.52,3.93,23.36,0,0,15.01-11.98,9.69,16.67,0,0,13.57-6.8,23.24,46.07,0,0,1.81-54.45,37.77,61.81s-84.64-37.9-54.79-23.06c0,0-51.9-57.83-23.52-43.13,0,0-33.19-25.3-15.09-18.56,0,0-32.91-42.83-12.83-32.55,0,0-33.08-46.11-14.58-36.2,0,0-21.47-22.51-7.61-19.35,0,0-16.48-16.21-1.59-13.82,0,0-40.54-42.35-24.38-40.24,0,0-37.48-52.92-13.98-37.28,0,0-37.97-30.58-20.6-27.7,0,0-19.58-27.33,4.3-14.4,0,0-22.93-37.81,11.95-18.93Z"/>
          <path class="cls-32" d="m-201.82,387.04s-6.01-10.7,10.72-2.84c0,0-10.27-20.21,31.59,15.29,0,0,2.76-12.94,43.5,18.08,0,0-22.5-52.53,46.06,24.3,0,0,11.13-20.69,51.77,30.84,0,0,.94-19.88,16.92,16.58,0,0,5.09-18.51,17.64,7.77,0,0,6.97-13.48,45.9,23.56,0,0-30.58-45.09,66.91,27.75,97.49,72.83-90.74,19.17-57.87,13.6,0,0-75.99-16.22-44.39-21.03,0,0-41.72-.92-23.12-6.13,0,0-51.81-15.26-29.53-18.77,0,0-53.88-17.81-33.09-20.69,0,0-30.61-5.56-17.54-11.17,0,0-22.87-3.41-9.42-10.24,0,0-57.7-10.39-43.39-18.19,0,0-61.45-20.73-33.24-21.92,0,0-48.69-2.38-32.95-10.27,0,0-31.91-10.58-5-14.18,0,0-40.79-17.08-1.48-22.34Z"/>
          <path class="cls-8" d="m-249.94,495.21s-7.26-9.9,10.3-4.12c0,0-12.63-18.83,33.21,11.37,0,0,1.18-13.18,45.36,12.7,0,0-28.67-49.43,48.66,18.57,0,0,8.56-21.89,55.11,24.37,0,0-1.46-19.85,18.8,14.42,0,0,2.82-18.99,18.45,5.59,0,0,5.29-14.22,48.41,17.86,0,0-35.79-41.07,69.77,19.48,105.56,60.55-87.76,29.97-55.81,20.48,0,0-77.4-6.94-46.61-15.52,0,0-41.53,4.11-23.69-3.3,0,0-53.27-8.9-31.58-15.07,0,0-55.64-11.18-35.34-16.55,0,0-31.05-1.83-18.76-8.97,0,0-23.11-.63-10.59-9.03,0,0-58.53-3.35-45.27-12.83,0,0-63.5-13.17-35.64-17.75,0,0-48.62,3.51-33.95-6.23,0,0-32.96-6.65-6.67-13.47,0,0-42.55-12.04-4.16-22Z"/>
          <g>
            <path class="cls-20" d="m439.41,703.23s-28.99-165.07-164.69-262.11c0,0-15.85-71.13-64.17-94.33,0,0-33.63-60.31-57.99-77.32h-40.21s36.34,44.46,49.48,53.35c0,0,17.97,53.74,45.52,68.04,0,0,45.72,80.02,68.52,98.97,0,0,26.67,117.91,50.64,153.09s41.24,65.55,41.24,65.55h72.32l-.68-5.24Z"/>
            <path class="cls-21" d="m285.6,601.67s-35.73-37.94-67.66-49.32c0,0-46.16-67.28-91.06-86.13,0,0-36.99-39.08-68.3-56.79l-39.21-22.13-17.07,37.31,61.49,31.62s36.53,50.27,71.94,75.88c0,0,17.39,22.13,41.1,32.88,0,0,26.56,41.74,39.84,54.38l45.28,88.69h90.4l-58.9-105.31-7.85-1.08Z"/>
            <path class="cls-20" d="m245.76,660.48s8.54-14.54-17.71-44.27c-26.24-29.72-61.97-39.21-61.97-39.21,0,0-49.96-37.63-72.09-55.02-22.13-17.39-115.72-44.9-134.69-61.97l-3.16,30.99s86.94,21.5,107.65,45.53,73.84,47.43,73.84,47.43c0,0,.32,12.96,34.78,27.82l12.02,32.25,61.34,16.44Z"/>
            <path class="cls-23" d="m208.47,708.29s-9.27-24.58-39.88-32.46S-5.77,609.05-41.94,559.89c0,0-24.11-6.96-68.63-36.17l-66.78-51.01,26.9-6.49s79.76,53.33,108.51,59.36c28.75,6.03,48.23,30.61,48.23,30.61,0,0,57.97,41.27,140.05,61.21,82.08,19.94,155.81,60.28,158.59,90.89h-96.45Z"/>
            <path class="cls-23" d="m408.6,708.29h-70.83s-24.9-39.58-32.85-65.19c0,0-39.82-63.24-57.84-104.02,0,0-87.64-54.7-109.46-90.75,0,0-26.88-50.27-51.22-67.66-24.35-17.39-60.08-49.64-80.31-77.78h46.16s19.29,32.57,39.84,40.16c20.55,7.59,72.09,51.85,72.09,51.85,0,0,14.86,21.18,18.97,39.21,0,0,77.78,53.12,104.66,100.86,0,0,44.9,30.67,53.75,72.72,0,0,68.61,48.5,67.03,100.61Z"/>
            <path class="cls-31" d="m420.85,708.06s-36.73-113.85-54.12-142.84c0,0-10.05-88.92-29.38-88.92,0,0-11.88-71.91-32.42-92.78,0,0-12.42-90.46-20.15-121h-33.25s12.37,68.43,20.1,81.18c0,0,6.19,76.93,17.78,98.19,0,0,16.24,68.04,32.47,91.23,0,0-3.87,52.96,8.5,78.86l34.02,96.07h56.44Z"/>
          </g>
          <path class="cls-8" d="m-278.73,284.44s-5.12-11.16,10.92-1.96c0,0-8.59-20.98,30.24,17.81,0,0,3.8-12.67,41.88,21.56,0,0-18.14-54.19,43.93,27.98,0,0,12.78-19.72,49.08,34.95,0,0,2.56-19.74,15.52,17.9,0,0,6.58-18.04,16.95,9.19,0,0,8.05-12.87,43.83,27.23,0,0-26.81-47.43,64.43,33.1,91.24,80.54-92,11.71-58.79,8.84,0,0-74.42-22.35-42.53-24.58,0,0-41.51-4.32-22.55-7.99,0,0-50.4-19.43-27.9-21.11,0,0-52.25-22.14-31.3-23.32,0,0-30.05-8.04-16.57-12.56,0,0-22.51-5.26-8.55-10.98,0,0-56.66-15.05-41.76-21.67,0,0-59.55-25.67-31.34-24.55,0,0-48.34-6.34-32.01-12.93,0,0-30.95-13.14-3.82-14.54,0,0-39.26-20.34.34-22.38Z"/>
          <g>
            <path class="cls-32" d="m-258.17,156.05s-2.92-11.93,11.09.14c0,0-4.47-22.23,26.33,23.21,0,0,6.13-11.72,37.05,29.1,0,0-7.56-56.64,37.84,35.78,0,0,16.28-16.94,41.58,43.61,0,0,6.25-18.9,11.85,20.51,0,0,9.87-16.47,14.9,12.23,0,0,10.33-11.11,37.89,35.03,0,0-17.34-51.65,57,44.7,74.35,96.35-92.55-5.91-59.4-2.44,0,0-68.85-36.03-37.11-32.18,0,0-39.94-12.1-20.63-12.12,0,0-45.81-28.61-23.4-26.01,0,0-47.12-31.63-26.32-28.82,0,0-27.99-13.58-13.9-15.47,0,0-21.11-9.42-6.32-12.4,0,0-52.79-25.5-36.91-29.18,0,0-53.62-36.48-26.13-30.04,0,0-46.26-15.37-28.98-18.75,0,0-27.9-18.76-1-15,0,0-34.7-27.4,4.57-21.91Z"/>
            <path class="cls-8" d="m-201.79,190.54s-3.77-11.69,11.07-.66c0,0-6.05-21.85,27.92,21.26,0,0,5.27-12.13,39.04,26.36,0,0-11.61-55.95,40.32,32.97,0,0,15.02-18.07,44.61,40.51,0,0,4.87-19.3,13.29,19.61,0,0,8.66-17.13,15.74,11.13,0,0,9.51-11.83,40.3,32.22,0,0-21.01-50.27,60.07,40.49,81.08,90.76-92.74.75-59.42,1.83,0,0-71.26-30.99-39.33-29.43,0,0-40.71-9.2-21.44-10.6,0,0-47.75-25.25-25.21-24.26,0,0-49.27-28.16-28.32-26.85,0,0-28.89-11.54-14.97-14.43,0,0-21.73-7.88-7.2-11.91,0,0-54.48-21.64-38.91-26.45,0,0-56.1-32.53-28.22-28.08,0,0-47.25-12.01-30.25-16.62,0,0-29.18-16.71-2.08-14.89,0,0-36.58-24.84,2.99-22.19Z"/>
          </g>
          <g>
            <path class="cls-8" d="m-98.65,3.31s-1.36-12.2,10.98,1.57c0,0-1.56-22.62,23.12,26.41,0,0,7.59-10.83,32.99,33.63,0,0-.2-57.15,32.92,40.36,0,0,18.33-14.7,35.62,48.6,0,0,8.63-17.94,9.11,21.87,0,0,11.91-15.06,13.21,14.05,0,0,11.68-9.69,33.06,39.62,0,0-10.55-53.45,50.77,51.67,61.32,105.12-91.02-17.78-58.59-10.08,0,0-63.63-44.6-32.66-36.7,0,0-38.05-17.14-18.89-14.67,0,0-41.74-34.28-19.86-28.81,0,0-42.65-37.44-22.39-31.97,0,0-26-17.07-11.79-17.13,0,0-19.72-12.06-4.67-13.11,0,0-49.06-32.09-32.84-33.69,0,0-48.47-43.08-22.04-33.16,0,0-43.9-21.2-26.33-22.33,0,0-25.25-22.2.94-15,0,0-30.88-31.65,7.36-21.14Z"/>
            <path class="cls-32" d="m-15.14,9.33s-.37-12.27,10.82,2.44c0,0,.25-22.67,20.93,28.18,0,0,8.43-10.19,30.19,36.16,0,0,4.38-56.98,29.58,42.87,0,0,19.45-13.19,31.61,51.3,0,0,10.04-17.19,7.32,22.53,0,0,13.08-14.06,12.04,15.06,0,0,12.42-8.72,29.78,42.14,0,0-6.23-54.12,46.47,55.57,52.7,109.69-89.3-25.02-57.59-14.74,0,0-59.85-49.56-29.62-39.19,0,0-36.55-20.13-17.66-16.14,0,0-38.86-37.51-17.48-30.31,0,0-39.52-40.73-19.75-33.66,0,0-24.55-19.1-10.38-18.02,0,0-18.69-13.61-3.61-13.44,0,0-46.33-35.92-30.04-36.21,0,0-44.87-46.82-19.32-34.81,0,0-42.06-24.65-24.45-24.36,0,0-23.39-24.15,2.14-14.88,0,0-28.25-34.02,9.03-20.48Z"/>
          </g>
          <g>
            <path class="cls-8" d="m115.01-85.92s2.53-12.01,9.94,4.92c0,0,5.58-21.97,13.71,32.31,0,0,10.59-7.92,20.83,42.25,0,0,17.67-54.35,18.66,48.63,0,0,22.01-8.24,18.64,57.3,0,0,13.8-14.34,1.82,23.62,0,0,16.02-10.58,8.15,17.47,0,0,14.12-5.55,19.02,47.96,0,0,6.69-54.07,32.08,64.95,25.39,119.02-80.9-45.34-52.5-27.88,0,0-46.5-62.25-19.56-45.06,0,0-30.79-28.17-13.36-19.84,0,0-28.94-45.6-9.86-33.57,0,0-28.82-48.89-11.27-37.36,0,0-19.37-24.35-5.84-19.95,0,0-14.96-17.62-.34-13.91,0,0-36.58-45.82-20.67-42.27,0,0-32.58-56.07-10.58-38.38,0,0-35.07-33.86-18.03-29.44,0,0-17.05-28.98,5.58-13.96,0,0-19.44-39.71,13.6-17.78Z"/>
            <path class="cls-32" d="m144.03-128.7s3.33-11.82,9.58,5.58c0,0,7.06-21.55,11.48,33.16,0,0,11.11-7.18,17.92,43.57,0,0,21.31-53.02,15.32,49.78,0,0,22.51-6.73,14.72,58.43,0,0,14.74-13.37.21,23.69,0,0,16.7-9.47,6.95,17.98,0,0,14.47-4.58,15.73,49.14,0,0,10.33-53.49,27.6,66.97,17.27,120.47-77.64-50.72-50.49-31.37,0,0-42.18-65.26-16.46-46.29,0,0-28.81-30.19-11.99-20.7,0,0-25.78-47.46-7.56-34.16,0,0-25.44-50.73-8.72-38.04,0,0-17.67-25.6-4.48-20.3,0,0-13.73-18.6.6-13.9,0,0-33.39-48.19-17.76-43.57,0,0-28.71-58.15-7.95-39.01,0,0-32.7-36.16-15.99-30.59,0,0-15.05-30.07,6.51-13.55,0,0-16.71-40.94,14.77-16.82Z"/>
            <path class="cls-8" d="m192.45-54.1s3.48-11.77,9.51,5.7c0,0,7.32-21.46,11.07,33.3,0,0,11.2-7.05,17.38,43.78,0,0,21.96-52.76,14.7,49.96,0,0,22.6-6.45,13.99,58.61,0,0,14.91-13.19-.08,23.69,0,0,16.82-9.27,6.73,18.07,0,0,14.52-4.4,15.12,49.33,0,0,11-53.36,26.77,67.31,15.78,120.67-77.01-51.67-50.1-32,0,0-41.37-65.78-15.88-46.49,0,0-28.43-30.55-11.73-20.85,0,0-25.19-47.78-7.14-34.25,0,0-24.81-51.04-8.25-38.14,0,0-17.35-25.82-4.23-20.36,0,0-13.5-18.76.77-13.89,0,0-32.79-48.6-17.22-43.79,0,0-27.99-58.5-7.47-39.11,0,0-32.25-36.56-15.61-30.78,0,0-14.67-30.25,6.68-13.47,0,0-16.2-41.14,14.98-16.64Z"/>
          </g>
          <g>
            <path class="cls-32" d="m-113.81,188.22s-2.92-11.93,11.09.14c0,0-4.47-22.23,26.33,23.21,0,0,6.13-11.72,37.05,29.1,0,0-7.56-56.64,37.84,35.78,0,0,16.28-16.94,41.58,43.61,0,0,6.25-18.9,11.85,20.51,0,0,9.87-16.47,14.9,12.23,0,0,10.33-11.11,37.89,35.03,0,0-17.34-51.65,57,44.7,74.35,96.35-92.55-5.91-59.4-2.44,0,0-68.85-36.03-37.11-32.18,0,0-39.94-12.1-20.63-12.12,0,0-45.81-28.61-23.4-26.01,0,0-47.12-31.63-26.32-28.82,0,0-27.99-13.58-13.9-15.47,0,0-21.11-9.42-6.32-12.4,0,0-52.79-25.5-36.91-29.18,0,0-53.62-36.48-26.13-30.04,0,0-46.26-15.37-28.98-18.75,0,0-27.9-18.76-1-15,0,0-34.7-27.4,4.57-21.91Z"/>
            <path class="cls-8" d="m-57.43,222.71s-3.77-11.69,11.07-.66c0,0-6.05-21.85,27.92,21.26,0,0,5.27-12.13,39.04,26.36,0,0-11.61-55.95,40.32,32.97,0,0,15.02-18.07,44.61,40.51,0,0,4.87-19.3,13.29,19.61,0,0,8.66-17.13,15.74,11.13,0,0,9.51-11.83,40.3,32.22,0,0-21.01-50.27,60.07,40.49,81.08,90.76-92.74.75-59.42,1.83,0,0-71.26-30.99-39.33-29.43,0,0-40.71-9.2-21.44-10.6,0,0-47.75-25.25-25.21-24.26,0,0-49.27-28.16-28.32-26.85,0,0-28.89-11.54-14.97-14.43,0,0-21.73-7.88-7.2-11.91,0,0-54.48-21.64-38.91-26.45,0,0-56.1-32.53-28.22-28.08,0,0-47.25-12.01-30.25-16.62,0,0-29.18-16.71-2.08-14.89,0,0-36.58-24.84,2.99-22.19Z"/>
          </g>
        </g>
        <g>
          <path class="cls-6" d="m223.44-11.77s-50.54,100.06,53.36,84.8c0,0-12.21,46.53,20.94,18.53,0,0,58.44,85.66,92.74-7.61,0,0-13.15,70.3,17.47,25.79,0,0,38.52,44.21,30.76-19.18,0,0,50.78,110.54,65.32,8.13,0,0,58.73,88.2,99.64-27.28,0,0,65.71,94.38,60.8-12.9,0,0,88.21,32.24,62.33-50.34,0,0,59.18,67.39,15.04-12.17,0,0,143.74,48.07,75.53-42.91l-37.69-54.6L223.44-11.77Z"/>
          <path class="cls-13" d="m659.99,168.44s18.9-19.07,63.19-23.38,140.87-31.37,140.87-31.37l10.5-35.75-135.48,19.32-91.39,1.24,12.3,69.95Z"/>
          <path class="cls-19" d="m572.15,788.04s7.1,7.78,35.86,3.38c0,0,8.8,6.09,21.65,4.06,0,0,3.72,25.04,54.13,22.33,0,0,18.27-16.71,43.98-14.78,0,0,19.96-4.5,18.27-25.14,0,0,60.58,1.45,50.43-12.46,0,0-23.71-112.57-42.89-102.98,0,0-29.1-97.89-29.35-124.79,0,0-38.32-75.11-54.81-188.79,0,0-4.57-94.4,2.28-114.44,0,0-.76-33.75-7.61-41.11,0,0-2.09-91.92-4.12-112.75s0-84.79,0-84.79l-126.54-6.39-1.97,124.27s-6.17,15.9-4.22,24.99c0,0,4.43,36.67-.38,51.93s-10.98,101.91,12.06,137.61c0,0-8.11,70.75,13.63,107.75,0,0,32.11,136.25,31.81,157.41,0,0,10.57,39.83,2.34,80.61,0,0-4.86,9.35,2.62,22.82,0,0-11.04,39.84-9.35,56.86,0,0-8.58,21.13-7.85,34.41Z"/>
          <path class="cls-28" d="m453.23,220.34s10.37,6.57-8.09,7.59c0,0,18.63,12.93-35.06,1.52,0,0,3.71,12.7-46.87,4.71,0,0,44.71,35.59-52.08.44,0,0,0,23.5-60.2-2.61,0,0,8.6,17.95-22.76-6.57,0,0,4.3,18.71-19.22,1.52,0,0,.25,15.17-51.59,1.01,0,0,48.3,25.2-72.07,7.29s70.81-59.89,44.51-39.41c0,0,74.6-21.75,49.06-2.53,0,0,37.17-18.97,23.27-5.56,0,0,52.85-11.13,34.9,2.53,0,0,55.89-9.86,38.94,2.53,0,0,29.59-9.61,20.74,1.52,0,0,21.75-7.84,13.15,4.55,0,0,55.73-18.21,46.83-4.55,0,0,63.93-10.87,39.66,3.54,0,0,44-20.99,33.89-6.57,0,0,33.11-5.82,11.12,10.12,0,0,44.01-4.3,11.89,18.97Z"/>
          <path class="cls-13" d="m529.72,276.71s-30.45-6.46-63.98-22.76c0,0-45.83,5.29-99.96-20.23,0,0-98.43,10.7-150.41,2.39s-103.96-9.53-129.8-9.23-80.28,16.61-110.73,12.92l-5.54-28.91s111.65-18.45,179.63-7.38,107.04-1.54,153.17,3.08c0,0,51.86-16.3,106.52-.31,0,0,48.5-2.15,78.65,6.46,0,0,44.6-15.07,42.45-.62,0,0-1.54,19.07,4.92,30.14,0,0,16.69,40.4-4.92,34.45Z"/>
          <path class="cls-19" d="m-63.3,252.41s-10.18,6.86,8.3,7.36c0,0-18.27,13.43,35.09.56,0,0-3.36,12.79,46.98,3.42,0,0-43.72,36.8,52.07-.99,0,0,.64,23.49,60.1-4.26,0,0-8.1,18.18,22.57-7.19,0,0-3.79,18.82,19.25.99,0,0,.16,15.17,51.6-.4,0,0-47.59,26.51,72.24,5.32,119.84-21.19-72.42-57.93-45.57-38.18,0,0-75.17-19.7-49.11-1.19,0,0-37.68-17.94-23.41-4.93,0,0-53.14-9.68-34.82,3.48,0,0-56.14-8.33-38.86,3.59,0,0-29.84-8.8-20.69,2.08,0,0-21.95-7.24-13.02,4.91,0,0-56.2-16.68-46.94-3.27,0,0-64.21-9.12-39.54,4.62,0,0-44.56-19.78-34.05-5.65,0,0-33.26-4.91-10.84,10.42,0,0-44.11-3.1-11.37,19.28Z"/>
          <path class="cls-33" d="m348.08,241.36s10.37,6.57-8.09,7.59c0,0,18.63,12.93-35.06,1.52,0,0,3.71,12.7-46.87,4.71,0,0,44.71,35.59-52.08.44,0,0,0,23.5-60.2-2.61,0,0,8.6,17.95-22.76-6.57,0,0,4.3,18.71-19.22,1.52,0,0,.25,15.17-51.59,1.01,0,0,48.3,25.2-72.07,7.29s70.81-59.89,44.51-39.41c0,0,74.6-21.75,49.06-2.53,0,0,37.17-18.97,23.27-5.56,0,0,52.85-11.13,34.9,2.53,0,0,55.89-9.86,38.94,2.53,0,0,29.59-9.61,20.74,1.52,0,0,21.75-7.84,13.15,4.55,0,0,55.73-18.21,46.83-4.55,0,0,63.93-10.87,39.66,3.54,0,0,44-20.99,33.89-6.57,0,0,33.11-5.82,11.12,10.12,0,0,44.01-4.3,11.89,18.97Z"/>
          <path class="cls-28" d="m242.24,177.48s16.91,12.06-5.88,20.2c0,0,31.03,24.26-43.53,14.51,0,0,12,28.4-56.64,25.63,0,0,77.11,68.85-65.7,17.33,0,0,13.54,54.71-77.73,12.77,0,0,21.22,39.11-32.6-8.18,0,0,16.22,42.22-23.46,9.55,0,0,9.06,35.25-64.74,18.51,0,0,75.67,43.55-87.06,39.54s55.18-161.6,33.67-105.68c0,0,81.94-73.99,60.67-21.25,0,0,36.15-55.8,26.26-20.24,0,0,60.52-42.45,45.65-5.04,0,0,65.09-40.46,50.77-6.31,0,0,31.93-31.64,27.13-2.96,0,0,23.03-25.06,19.27,6.48,0,0,60.08-59.84,56.68-25.26,0,0,74.7-45.33,52.25-4.18,0,0,43.63-62.64,39.12-25.92,0,0,38.58-23.91,19.9,20.07,0,0,53.25-23.79,25.98,40.43Z"/>
          <path class="cls-33" d="m149.33,196.95s12.08,10.39-7.11,14.18c0,0,21.91,20.61-36.52,6.49,0,0,6.21,21.84-48.33,13.37,0,0,53.43,57.47-54.58,6.46,0,0,4.3,41.18-63.66,2.01,0,0,12.3,30.52-25.09-9.03,0,0,7.93,32.32-19.89,4.76,0,0,3.04,26.56-53.96,7.42,0,0,55.3,38.88-74.31,20.66-129.61-18.22,63.38-112.69,39.52-73.92,0,0,74.32-46.27,51.03-9.8,0,0,35.55-37.3,23.4-12.29,0,0,53.44-25.28,37.09.61,0,0,56.86-23.4,41.34.17,0,0,29.3-20.08,22.04.39,0,0,21.39-16.12,14.63,6.54,0,0,55.16-38,48.32-13.1,0,0,65.12-26.05,42.27,1.87,0,0,42.35-41.59,34.36-15.23,0,0,33.69-13.81,13.52,16.51,0,0,45.4-12.35,15.95,31.93Z"/>
          <path class="cls-28" d="m321.47-4.21s-26.93,53.31,28.43,45.18c0,0-6.51,24.79,11.15,9.87,0,0,31.13,45.64,49.41-4.05,0,0-7.01,37.45,9.31,13.74,0,0,20.52,23.56,16.39-10.22,0,0,27.06,58.89,34.8,4.33,0,0,31.29,46.99,53.09-14.54,0,0,35.01,50.28,32.39-6.87,0,0,47,17.18,33.21-26.82,0,0,31.53,35.91,8.01-6.49,0,0,76.58,25.61,40.24-22.86l-20.08-29.09L321.47-4.21Z"/>
          <path class="cls-33" d="m359.81-36.81s-34.66,48.63,21.28,48.95c0,0-10.17,23.52,9.54,11.44,0,0,23.89,49.81,49.45,3.45,0,0-12.58,35.97,7.13,14.99,0,0,16.73,26.38,17.74-7.63,0,0,17.86,62.3,33.75,9.54,0,0,23.84,51.18,54.67-6.36,0,0,27.02,54.99,33.06-1.91,0,0,43.87,24.07,36.87-21.5,0,0,25.75,40.25,8.9-5.2,0,0,71.84,36.87,43.23-16.53l-15.46-31.79-300.18,2.54Z"/>
        </g>
        <path class="cls-14" d="m-47.91,1086.5s25.62-35.96,33.27-66.53S.12,898.6.12,898.6l5.19-3.04s6.52-29,11.29-36.79l4.87,13.82,2.34-5.45,5.06,6.03.78-14.4s5.94,6.81,14.4,11.48c0,0,6.62-3.11,13.43,2.92,0,0,8.18-1.36,16.35,4.09l1.75-4.48,11.87,13.82,19.66,13.82v-6.62s13.72,12.75,18.49,14.6l1.17-5.84,3.7,5.06s7.4-4.38,7.79-10.51l8.56,8.18,2.14-6.23,13.82,15.38v-5.26l7.4,7.59,1.36-7.2,14.21,18.49,2.53-9.34,8.18,19.86,7.1-8.18,15.9,44.48s5.15,34.48,6.83,38.94,1.91,33.32,1.91,33.32c0,0,18.24,48.94,41.12,63.08,0,0,16.75,5.58,28.28,14.89,0,0-42.36,24.75-88.99-.33,0,0-20.78,11.32-49.44-5.62,0,0-6.51,8.85-22.88,20.39s-8.78,25.59-26.65,29.32c0,0-46.12,4.55-68.45-49.23,0,0-34.24,17.68-57.31-9.49,0,0-56.52,3.49-31.8-23.65Z"/>
        <g>
          <path class="cls-16" d="m449.98,1009.61s-34.54-19.75-4.78-16.16c0,0-10.58-8.64,7.16-6.89,0,0-17.49-3.3-4.85-8.35,0,0-40.63-.55-18.72-6.22,0,0-9.76-7.46,6.85-4.78,0,0-25.88-14.25-2.02-11.5,0,0-13.68-25.58,22.19-17.99,0,0-14.35-5.42-.1-4.1,0,0,17.06-26.46,50.69-15.34,0,0-15.74-14.88,10.79-9.5,0,0-20.5-7.84-.18-7.44,0,0,.75-16.81,21.98-14.89,0,0-4.5-6.14,16.42-4.86,0,0,1.66-15.09,32.92-6.62,0,0,1.62-4.79,13.88-2.13,0,0-10.7-10.64,18.93-9.18,0,0,3.17-12.65,13.22-5.2,0,0-1.9-6.48,16.18-2.89,0,0-7.02-14.14,29.87-12.47,0,0-.77-7.99,23.65-5.67,0,0-7.92-15.62,13.73-8.07,0,0,9.65-16.05,29.44-6.25,0,0,21.1-18.26,34.13-4.3l8,185.87-339.39,4.91Z"/>
          <path class="cls-36" d="m432.93,1005.56s8.67-26.68,36.2-16.73c0,0-8.13-11.93,8.37-6.45,0,0-15.92-7.2-2.74-10.47,0,0-38.58-8.63-16.43-10.77,0,0-7.61-10.42,7.6-4.1,0,0-21.44-21.33.66-13.5,0,0-7.27-31.84,25.19-16.13,0,0-12.45-9,.83-4.69,0,0,22.2-26.79,51.74-7.51,0,0-11.64-20.06,12.42-8.7,0,0-17.76-12.97,1.5-8.51,0,0,4.5-19.01,24.29-12.64,0,0-2.91-7.89,16.73-2.3,0,0,4.98-16.87,32.84-1.06,0,0,2.62-5.13,13.7.3,0,0-7.8-14.24,20.1-6.74,0,0,5.87-13.79,13.76-3.32,0,0-.35-7.76,16.06-.11,0,0-3.5-17.49,31.26-8.33,0,0,1.06-9.26,23.81-1.81,0,0-4.03-19.36,14.9-6.49,0,0,12.81-16.4,29.45-1.33,0,0,24.2-16.66,33.48,1.81l-34.23,213.39-361.52-63.81Z"/>
          <path class="cls-36" d="m440,1004.55s4.3,16.26,33.06,12.61c0,0-9.93,6.33,7.23,4.42,0,0-16.86,2.96-4.37,5.9,0,0-39.46,2.02-17.94,5,0,0-9.18,5.49,6.85,2.99,0,0-24.57,10.79-1.5,7.94,0,0-12.26,18.03,22.29,11.39,0,0-13.72,4.29.07,2.81,0,0,17.64,17.39,49.87,8.43,0,0-14.69,10.81,10.87,6.05,0,0-19.6,6.19.12,5.09,0,0,1.41,11.46,21.96,9.29,0,0-4.13,4.38,16.15,2.65,0,0,2.23,10.25,32.25,3.19,0,0,1.77,3.2,13.57.9,0,0-9.97,7.71,18.76,5.51,0,0,3.6,8.51,13.05,3.02,0,0-1.58,4.51,15.83,1.32,0,0-6.25,9.95,29.53,7.31,0,0-.43,5.49,23.21,2.92,0,0-7.07,10.99,13.67,4.96,0,0,10.02,10.58,28.86,3.08,0,0,21.23,11.62,33.34,1.56l.26-127.33-366.99,9Z"/>
          <path class="cls-36" d="m618.66,958.32s-10.94,26.36,18.06,37.8c0,0-14.62,3.49,2.44,10.71,0,0-17.74-5.51-9.26,6.1,0,0-37.06-20.08-20.56-3.14,0,0-13.18,2.69,3.39,8.39,0,0-31.73,1.47-8.55,10.76,0,0-27.33,19.29,9.54,29.72,0,0-16.15-1.73-2.49,4.16,0,0-.06,35.8,36.85,41.49,0,0-22.94,7.27,4.2,15.23,0,0-23.12-2.37-4.51,7.53,0,0-9.15,17.62,11.16,26.44,0,0-7.66,4.01,12,13.32,0,0-7.33,16.33,25.89,23.51,0,0-1.33,5.73,11.3,9.24,0,0-15.9,5.48,11.74,19.03,0,0-4.53,14.59,8.91,12.05,0,0-5.51,5.68,12.94,11.18,0,0-14.62,10.94,19.71,27.97,0,0-5.38,7.8,18.07,17.83,0,0-16.3,12,7.7,15.25,0,0-.67,21.37,22.96,21.37,0,0,8.39,29.45,28.34,21.76l115.96-186.57-335.79-201.13Z"/>
        </g>
        <path class="cls-2" d="m219.34,974.87l-15.9-44.48-7.1,8.18-8.18-19.86-2.53,9.34-14.21-18.49-1.36,7.2-7.4-7.59v5.26l-13.82-15.38-2.14,6.23-8.56-8.18c-.39,6.13-7.79,10.51-7.79,10.51l-3.7-5.06-1.17,5.84c-4.77-1.85-18.49-14.6-18.49-14.6v6.62l-19.66-13.82-11.87-13.82-1.75,4.48c-8.18-5.45-16.35-4.09-16.35-4.09-6.81-6.03-13.43-2.92-13.43-2.92-8.47-4.67-14.4-11.48-14.4-11.48l-.78,14.4-5.06-6.03-2.34,5.45-4.87-13.82c-4.77,7.79-11.29,36.79-11.29,36.79l-5.19,3.04,16.02,18.22-.31-19.41,25.44,41.07,3.37-8.58s24.98,15.94,27.59,26.05l1.53-12.57,10.42,17.16,22.99,19-.61-11.65,29.12,19.92,7.36,18.08s2.76-18.7,3.37-17.78,9.5,15.33,9.5,15.33c0,0,12.57,37.7,12.72,36.94s7.36-17.16,7.36-17.16l18.39,32.18,3.68-9.81,8.58,17.16,6.74-48.91,8.28,21.94s-5.36-43.37-5.21-42.61,9.97,20.62,9.97,20.62l-6.95-38.94Z"/>
      </g>
      <path class="cls-29" d="m195.08,713.54s13.6-16.05,24.79-3.35c0,0,1.81-13.56,10.28-4.89,0,0,23.28-8.98,28.11.53,0,0-1.81-6.78,9.67,0,0,0,18.44-7.73,14.21-1.38,0,0,14.81-5.68,18.44,3.05,0,0,6.35-11.97,8.46-4.26,0,0,15.11-6.35,11.49,1.21,0,0,8.92-7.26,18.44-.6,0,0,9.52-8.73,19.95,1.99,0,0,19.95-12.57,18.14-3.5,0,0,3.48-6.65,10.58,1.21,0,0,26.6-12.55,22.37-1.81,0,0,9.82-6.28,18.14,3.74,0,0,7.56-10.02,15.11,0l1.51,11.98-249.7,2.72v-6.63Z"/>
      <rect class="cls-9" x="969.36" y="-24.07" width="974.25" height="786.83"/>
      <g class="cls-1">
        <polygon class="cls-26" points="1458.23 654.99 1453.35 459.63 1449.45 336.56 1447.49 164.44 1439.69 -77.04 1457.79 -77.04 1462.13 191.98 1467.01 393.36 1473.35 548.27 1477.75 654.99 1458.23 654.99"/>
        <polygon class="cls-26" points="1393.37 658.26 1392.04 462.85 1391.7 339.71 1389.09 167.64 1389.12 -46.81 1377.83 -46.04 1380.79 195.77 1382.26 397.2 1381.81 552.26 1381.49 659.08 1393.37 658.26"/>
        <polygon class="cls-26" points="1183.42 664.41 1182.08 469 1181.74 345.86 1179.14 173.79 1179.16 -40.66 1167.87 -39.89 1170.83 201.92 1172.3 403.35 1171.85 558.41 1171.53 665.23 1183.42 664.41"/>
        <polygon class="cls-26" points="1033.69 664.41 1032.35 469 1032.02 345.86 1029.41 173.79 1029.44 -40.66 1018.15 -39.89 1021.1 201.92 1022.57 403.35 1022.13 558.41 1021.81 665.23 1033.69 664.41"/>
        <polygon class="cls-26" points="1321.2 672.14 1316.32 476.79 1312.42 353.72 1310.46 181.6 1302.66 -59.88 1320.76 -59.88 1325.1 209.14 1329.98 410.52 1336.32 565.43 1340.72 672.14 1321.2 672.14"/>
        <polygon class="cls-26" points="1229.49 716.38 1229.49 505.53 1226.28 384.23 1226.28 202.85 1220.82 -40.66 1255.54 -40.66 1255.85 249.33 1255.85 419.37 1261.63 546.34 1266.77 711.84 1229.49 716.38"/>
      </g>
      <g class="cls-1">
        <polygon class="cls-26" points="1577.49 647.6 1582.37 452.24 1586.27 329.18 1588.22 157.06 1596.03 -84.42 1577.93 -84.42 1573.59 184.6 1568.71 385.98 1562.36 540.88 1557.97 647.6 1577.49 647.6"/>
        <polygon class="cls-26" points="1657.06 650.87 1658.4 455.46 1658.73 332.33 1661.34 160.26 1661.31 -54.2 1672.6 -53.42 1669.65 188.39 1668.18 389.82 1668.62 544.87 1668.94 651.69 1657.06 650.87"/>
        <polygon class="cls-26" points="1889.99 657.02 1891.33 461.61 1891.67 338.48 1894.27 166.41 1894.25 -48.05 1905.54 -47.27 1902.58 194.54 1901.11 395.97 1901.56 551.02 1901.88 657.84 1889.99 657.02"/>
        <polygon class="cls-26" points="1729.23 664.76 1734.11 469.4 1738.02 346.34 1739.97 174.22 1747.78 -67.26 1729.67 -67.26 1725.33 201.75 1720.45 403.13 1714.11 558.04 1709.72 664.76 1729.23 664.76"/>
        <polygon class="cls-26" points="1820.94 708.99 1820.94 498.14 1824.15 376.84 1824.15 195.47 1829.61 -48.05 1794.89 -48.05 1794.59 241.95 1794.59 411.99 1788.8 538.95 1783.66 704.45 1820.94 708.99"/>
      </g>
      <polygon class="cls-26" points="1637.16 612.71 1629.5 438.69 1623.36 329.07 1620.3 175.75 1608.03 -39.35 1636.47 -39.35 1643.29 200.28 1650.96 379.66 1660.93 517.65 1667.83 612.71 1637.16 612.71"/>
      <polygon class="cls-26" points="1535.27 615.63 1533.17 441.56 1532.64 331.87 1528.54 178.6 1528.59 -12.43 1510.85 -11.74 1515.5 203.66 1517.8 383.08 1517.1 521.2 1516.6 616.35 1535.27 615.63"/>
      <path class="cls-25" d="m1400.32,632.92s-328.12-33.38-445.88-32.92v74.05h445.88v-41.14Z"/>
      <polygon class="cls-26" points="1205.41 621.1 1203.31 447.04 1202.78 337.35 1198.68 184.08 1198.73 -6.95 1180.99 -6.26 1185.63 209.13 1187.94 388.56 1187.24 526.68 1186.74 621.83 1205.41 621.1"/>
      <path class="cls-25" d="m1165.13,620.58s8.93-7.22,15.32-1c0,0,3.53-7.64,2.22-14.52,0,0,4.41,11.77,3.61,14.14,0,0,2.15-5.35,7.14-1.65,0,0,9.4-6.8,10.86.47,0,0,3.3-3.72,7.9,1.23,0,0-2.07-9.54.53-14.2,0,0-1.29,10.2,8.1,15.52l.45,6.88-55.68.23-.46-7.09Z"/>
      <path class="cls-11" d="m1954.38,607.04s-572.01,6.28-716.81,25.88-308.81-32.92-308.81-32.92l-4.53,162.09,1079.21,16.08-49.06-171.12Z"/>
      <polygon class="cls-26" points="1421.88 627.99 1414.21 453.97 1408.08 344.35 1405.01 191.03 1392.75 -24.07 1421.19 -24.07 1428.01 215.56 1435.68 394.95 1445.64 532.93 1452.54 627.99 1421.88 627.99"/>
      <path class="cls-11" d="m1408.12,627.51s8.93-7.22,15.32-1c0,0,3.53-7.64,2.22-14.52,0,0,4.41,11.77,3.61,14.14,0,0,2.15-5.35,7.14-1.65,0,0,9.4-6.8,10.86.47,0,0,3.3-3.72,7.9,1.23,0,0-2.07-9.54.53-14.2,0,0-1.29,10.2,8.1,15.52l.45,6.88-55.68.23-.46-7.09Z"/>
      <path class="cls-37" d="m939.6,667.39s472.09-43.31,677.32,17.88c0,0,226.17,80.33,348.23-38.74l8.38,185.11H939.6v-164.25Z"/>
      <polygon class="cls-26" points="1277.8 667.39 1277.8 479.57 1272.75 371.53 1272.75 209.96 1264.17 -6.95 1318.72 -6.95 1319.2 251.36 1319.2 402.83 1328.29 515.93 1336.37 663.35 1277.8 667.39"/>
      <path class="cls-37" d="m1267.65,660.72s2.84-10.91,5.87-9.4c0,0-3.18,5.15,1.21,9.4,0,0,5-3.64,8.49.91,0,0,3.33-3.72,8.79,3.37,0,0,3.94-3.9,8.49,0,0,0,18.91-3.99,25.16,0,0,0,3.33-2.92,7.58,1.78,0,0,1.87-13.54,5.46-5.46,0,0,9.09.76,9.09,5.46l-2.73,7.28-78.81-2.49,1.4-10.85Z"/>
      <path class="cls-18" d="m1943.61,736.28s-358.64,18.55-520.97,0-374.14-56.84-459.11-50.26,0,0,0,0v291.99l1002.81-10.77-22.74-230.96Z"/>
      <polygon class="cls-26" points="1040.75 742.95 1047.72 466.2 1040.75 249.06 1046.71 -39.35 1144.24 -28.62 1153.68 204.98 1141.32 564.72 1153.68 747.48 1040.75 742.95"/>
      <polygon class="cls-10" points="1052.06 742.95 1057.63 466.2 1052.06 249.06 1056.82 -39.35 1134.82 -28.62 1142.38 204.98 1132.49 564.72 1142.38 747.48 1052.06 742.95"/>
      <path class="cls-18" d="m1031.29,739.09s21.76-15.34,35.6,0c0,0,9.32-17.15,7.35-33.26,0,0,8.43,27.89,6.22,33.26,0,0,5.79-12.05,16.77-2.74,0,0,22.79-14.3,25.05,2.74,0,0,8.19-8.11,18.08,4.04,0,0-3.34-22.37,3.39-32.77,0,0-4.52,23.4,16.39,37.13v15.99l-128.84-7.91v-16.47Z"/>
      <path class="cls-35" d="m1943.61,818.02s-312.93,3.83-544.49,69.05-470.36-25.13-470.36-25.13v241.73h1014.84v-285.65Z"/>
      <g>
        <polygon class="cls-12" points="1682.1 964.76 1693.78 501.07 1682.1 137.24 1676.26 -28.62 1847.95 -28.62 1856.13 322.95 1871.31 660 1871.31 972.35 1682.1 964.76"/>
        <polygon class="cls-27" points="1716.45 964.76 1724.43 501.07 1716.45 137.24 1712.45 -28.62 1829.88 -28.62 1835.47 322.95 1845.85 660 1845.85 972.35 1716.45 964.76"/>
      </g>
      <path class="cls-35" d="m1676.26,949.65s7.43-28.52,15.35-24.56c0,0-8.32,13.47,3.17,24.56,0,0,13.07-9.51,22.18,2.38,0,0,8.71-9.71,22.98,8.81,0,0,10.3-10.2,22.18,0,0,0,49.43-10.43,65.76,0,0,0,8.71-7.62,19.81,4.66,0,0,4.89-35.38,14.26-14.26,0,0,23.77,1.98,23.77,14.26l-7.13,19.01-205.99-6.5,3.66-28.36Z"/>
      <path class="cls-4" d="m1934.04,1001.94s-296.18,25.73-427.21,52.65-262.32,37.7-353.14,23.93-166.21-28.72-214.08-25.13v222.58h994.44v-274.04Z"/>
      <path class="cls-30" d="m758.03,1315.28s-3.28-207.79,8.2-243.65c0,0-5.94-422.8,8.2-443.63,0,0-1.69-261.85,10.77-301.27s-16.81-354.88,12.43-376.17h205.5s11.83,219.06,0,280.44c0,0,9.01,213-6.76,257.98,0,0,12.39,208.85.56,273.05,0,0,9.01,114.88,3.38,162.74,0,0,17.27,242.71,8.07,296.2l-250.35,94.31Z"/>
      <path class="cls-17" d="m807.27,1315.34s-2.1-207.79,5.25-243.65c0,0-3.81-422.8,5.25-443.63,0,0-1.08-261.85,6.9-301.27s-10.77-354.88,7.96-376.17h131.63s7.57,219.06,0,280.44c0,0,5.77,213-4.33,257.98,0,0,7.94,208.85.36,273.05,0,0,5.77,114.88,2.16,162.74,0,0,11.06,242.71,5.17,296.2l-160.36,94.31Z"/>
      <path class="cls-5" d="m847.72,1315.34s-1.05-207.79,2.63-243.65c0,0-1.9-422.8,2.63-443.63,0,0-.54-261.85,3.45-301.27s-5.39-354.88,3.98-376.17h65.82s3.79,219.06,0,280.44c0,0,2.89,213-2.16,257.98,0,0,3.97,208.85.18,273.05,0,0,2.89,114.88,1.08,162.74,0,0,5.53,242.71,2.59,296.2l-80.18,94.31Z"/>
    </g>
  </g>
</svg>